<svg width="34" height="35" viewBox="0 0 34 35" fill="none" xmlns="http://www.w3.org/2000/svg">
<g clip-path="url(#clip0_3042_36405)">
<path d="M15.7725 31.9427C15.8117 31.9856 15.8643 32.0141 15.9217 32.0233C15.9792 32.0326 16.0381 32.0221 16.0888 31.9937C24.9489 27.0286 34.1098 16.3181 33.1527 9.85864C32.8884 8.07364 31.8818 6.32779 30.392 5.06927C26.2862 1.60024 19.9808 2.5337 17.0861 7.16491C14.3955 3.34197 7.94991 2.21637 3.77152 5.82861C1.46467 7.82327 0.328242 11.0826 0.943848 13.9386C1.88142 18.2896 6.28545 21.5685 15.7725 31.9427ZM18.6259 25.3961L19.5887 26.3589L18.3451 27.6025L17.3823 26.6397L18.6259 25.3961ZM21.9368 24.3756L22.4957 24.9345L21.6308 25.7995L21.0718 25.2405L21.9368 24.3756ZM20.89 25.0582L20.432 24.6002L21.297 23.7353L21.7544 24.1932L20.89 25.0582ZM22.5941 26.7623L21.8132 25.9813L22.6781 25.1164L23.5034 25.9417C23.2046 26.2199 22.9012 26.4934 22.5941 26.7623ZM17.0995 30.798L16.3072 30.0057L17.1721 29.1408L18.0211 29.9897C18.0331 30.0017 18.0473 30.0112 18.063 30.0177C18.0786 30.0242 18.0954 30.0275 18.1123 30.0275C18.1292 30.0275 18.146 30.0242 18.1616 30.0177C18.1773 30.0112 18.1915 30.0017 18.2035 29.9897C18.2155 29.9778 18.225 29.9635 18.2314 29.9479C18.2379 29.9323 18.2413 29.9155 18.2413 29.8986C18.2413 29.8816 18.2379 29.8648 18.2314 29.8492C18.225 29.8336 18.2155 29.8193 18.2035 29.8074L18.0695 29.6734C18.1031 29.6732 18.1353 29.6599 18.1592 29.6363L19.087 28.7085L19.3718 28.9934C19.3837 29.0057 19.398 29.0155 19.4137 29.0222C19.4294 29.029 19.4463 29.0325 19.4634 29.0326C19.4805 29.0327 19.4975 29.0294 19.5133 29.0229C19.5291 29.0165 19.5435 29.0069 19.5555 28.9948C19.5676 28.9827 19.5772 28.9683 19.5836 28.9524C19.5901 28.9366 19.5933 28.9196 19.5931 28.9025C19.593 28.8854 19.5894 28.8685 19.5826 28.8528C19.5758 28.8371 19.566 28.8229 19.5537 28.8111L19.2688 28.5262L20.5124 27.2826L20.9982 27.7684C21.0101 27.7807 21.0243 27.7905 21.04 27.7972C21.0557 27.8039 21.0727 27.8075 21.0898 27.8076C21.1069 27.8077 21.1238 27.8044 21.1396 27.7979C21.1554 27.7914 21.1698 27.7818 21.1819 27.7697C21.194 27.7576 21.2035 27.7432 21.2099 27.7274C21.2164 27.7116 21.2196 27.6946 21.2195 27.6775C21.2193 27.6604 21.2157 27.6435 21.2089 27.6278C21.2022 27.6121 21.1923 27.5979 21.18 27.586L20.6942 27.1002L21.6313 26.1632L22.402 26.9339C20.745 28.3676 18.9723 29.662 17.1021 30.8037C17.1 30.8021 17.1011 30.7995 17.0995 30.798ZM17.9392 29.5436L17.354 28.9584L18.3451 27.9672L18.9041 28.5262L17.9763 29.454C17.9527 29.4779 17.9394 29.51 17.9392 29.5436ZM21.4489 25.9813L20.5119 26.9184L19.9529 26.3595L20.89 25.4224L21.4489 25.9813ZM20.33 27.1002L19.0865 28.3438L18.5275 27.7849L19.7711 26.5413L20.33 27.1002ZM18.1628 27.7854L17.1716 28.7765L16.2083 27.8137L17.1995 26.8226L18.1628 27.7854ZM16.9898 28.9584L16.1248 29.8233L15.162 28.86L16.0265 27.9951L16.9898 28.9584ZM15.943 30.0057L15.2888 30.6599C14.9807 30.3272 14.6716 29.9954 14.3599 29.6626L14.9797 29.0429L15.943 30.0057ZM16.0146 31.444C15.8328 31.2457 15.6473 31.0473 15.4639 30.849L16.1248 30.1881L16.8744 30.9376C16.5895 31.1086 16.3041 31.2797 16.0146 31.444ZM28.9284 19.6676L28.0965 18.8357L28.9248 18.0068L29.6172 18.6992C29.3966 19.0348 29.1709 19.3671 28.9403 19.696C28.9346 19.6872 28.9361 19.6754 28.9284 19.6676ZM27.9141 18.6533L27.5174 18.2566L28.3458 17.4283L28.7425 17.8249L27.9141 18.6533ZM29.7625 18.4802L29.1072 17.8249L29.474 17.4582C29.4982 17.434 29.5117 17.4012 29.5117 17.367C29.5117 17.3328 29.4982 17.3 29.474 17.2758C29.4498 17.2516 29.417 17.238 29.3828 17.238C29.3486 17.238 29.3158 17.2516 29.2916 17.2758L28.9248 17.6426L28.5282 17.2459L29.5554 16.2187L30.0834 16.7462L29.5842 17.2454C29.5722 17.2574 29.5627 17.2716 29.5563 17.2872C29.5498 17.3029 29.5464 17.3196 29.5464 17.3366C29.5464 17.3535 29.5498 17.3703 29.5563 17.3859C29.5627 17.4016 29.5722 17.4158 29.5842 17.4278C29.5962 17.4397 29.6104 17.4492 29.626 17.4557C29.6417 17.4622 29.6585 17.4655 29.6754 17.4655C29.6923 17.4655 29.7091 17.4622 29.7247 17.4557C29.7404 17.4492 29.7546 17.4397 29.7666 17.4278L30.2658 16.9286L30.443 17.1058C30.4868 17.1496 30.5542 17.1614 30.6155 17.1099C30.3406 17.5725 30.0562 18.0293 29.7625 18.4802ZM32.6519 11.9115L32.4881 11.7477L32.6875 11.5483C32.6772 11.6699 32.6674 11.791 32.6519 11.9115ZM4.10842 6.21806C8.16782 2.70782 14.4836 3.95191 16.8801 7.78567C16.928 7.86294 16.9996 7.90518 17.1047 7.90673C17.1494 7.90566 17.1931 7.89293 17.2314 7.8698C17.2697 7.84667 17.3013 7.81394 17.3231 7.77485C21.5077 0.295365 33.0512 3.4213 32.7045 11.2599C32.6622 11.2501 32.6185 11.2532 32.5855 11.2861L32.3052 11.5664L32.2233 11.4845C32.1991 11.4603 32.1664 11.4467 32.1322 11.4467C32.0979 11.4467 32.0652 11.4603 32.041 11.4845C32.0168 11.5086 32.0032 11.5414 32.0032 11.5756C32.0032 11.6098 32.0168 11.6426 32.041 11.6668L32.1229 11.7487L31.3249 12.5467C31.3126 12.5586 31.3028 12.5728 31.2961 12.5885C31.2894 12.6043 31.2859 12.6212 31.2857 12.6383C31.2856 12.6554 31.2889 12.6723 31.2954 12.6881C31.3019 12.704 31.3115 12.7183 31.3236 12.7304C31.3357 12.7425 31.3501 12.752 31.3659 12.7585C31.3818 12.7649 31.3987 12.7682 31.4158 12.768C31.4329 12.7678 31.4498 12.7642 31.4655 12.7575C31.4812 12.7507 31.4954 12.7409 31.5073 12.7285L31.5217 12.7141C31.5279 12.7255 31.5263 12.7394 31.5361 12.7492L32.1388 13.3519C32.1507 13.3642 32.165 13.374 32.1807 13.3807C32.1964 13.3874 32.2133 13.3909 32.2304 13.3911C32.2475 13.3912 32.2645 13.3879 32.2803 13.3814C32.2961 13.3749 32.3105 13.3653 32.3225 13.3532C32.3346 13.3411 32.3442 13.3267 32.3506 13.3109C32.3571 13.295 32.3603 13.2781 32.3601 13.261C32.36 13.2439 32.3564 13.227 32.3496 13.2113C32.3428 13.1956 32.333 13.1814 32.3207 13.1695L31.7185 12.5668C31.7087 12.557 31.6953 12.558 31.6835 12.5524L32.3058 11.9301L32.602 12.2263C32.3042 14.0108 31.4542 15.685 30.6418 17.0635C30.6624 17.0167 30.6629 16.9626 30.6243 16.9239L30.4471 16.7472L30.7727 16.4217C30.7846 16.4097 30.7941 16.3955 30.8006 16.3798C30.8071 16.3642 30.8104 16.3474 30.8104 16.3305C30.8104 16.3136 30.8071 16.2968 30.8006 16.2811C30.7941 16.2655 30.7846 16.2513 30.7727 16.2393C30.7607 16.2273 30.7465 16.2178 30.7308 16.2114C30.7152 16.2049 30.6984 16.2015 30.6815 16.2015C30.6645 16.2015 30.6478 16.2049 30.6321 16.2114C30.6165 16.2178 30.6023 16.2273 30.5903 16.2393L30.2647 16.5649L29.4796 15.7798C29.4555 15.7556 29.4227 15.742 29.3885 15.742C29.3543 15.742 29.3215 15.7556 29.2973 15.7798C29.2731 15.804 29.2595 15.8368 29.2595 15.871C29.2595 15.9052 29.2731 15.938 29.2973 15.9622L29.3725 16.0374L28.3453 17.0646L28.1799 16.8992C28.168 16.8869 28.1538 16.8771 28.1381 16.8703C28.1224 16.8635 28.1055 16.86 28.0884 16.8598C28.0713 16.8596 28.0544 16.8628 28.0386 16.8693C28.0227 16.8757 28.0083 16.8853 27.9962 16.8974C27.9841 16.9094 27.9745 16.9238 27.968 16.9396C27.9615 16.9554 27.9582 16.9724 27.9584 16.9895C27.9585 17.0066 27.962 17.0235 27.9687 17.0392C27.9755 17.0549 27.9853 17.0692 27.9975 17.0811L28.1629 17.2464L27.3345 18.0748L27.1692 17.9094C27.1572 17.8975 27.143 17.888 27.1273 17.8815C27.1117 17.875 27.0949 17.8717 27.078 17.8717C27.0611 17.8717 27.0443 17.875 27.0287 17.8815C27.013 17.888 26.9988 17.8975 26.9868 17.9094C26.9748 17.9214 26.9653 17.9356 26.9589 17.9513C26.9524 17.9669 26.949 17.9837 26.949 18.0006C26.949 18.0175 26.9524 18.0343 26.9589 18.05C26.9653 18.0656 26.9748 18.0798 26.9868 18.0918L27.1522 18.2572L26.7653 18.644C26.753 18.6559 26.7432 18.6702 26.7365 18.6859C26.7298 18.7016 26.7262 18.7185 26.7261 18.7356C26.726 18.7527 26.7293 18.7697 26.7358 18.7855C26.7423 18.8013 26.7519 18.8157 26.764 18.8277C26.7761 18.8398 26.7905 18.8493 26.8063 18.8558C26.8221 18.8623 26.8391 18.8655 26.8562 18.8653C26.8733 18.8651 26.8902 18.8616 26.9059 18.8548C26.9216 18.848 26.9358 18.8382 26.9477 18.8259L27.3345 18.439L27.7312 18.8357L26.6566 19.9103C26.6324 19.9345 26.6188 19.9673 26.6188 20.0015C26.6188 20.0357 26.6324 20.0685 26.6566 20.0926C26.6808 20.1168 26.7136 20.1304 26.7478 20.1304C26.782 20.1304 26.8148 20.1168 26.839 20.0926L27.9136 19.018L28.7455 19.85C28.7636 19.868 28.7878 19.8722 28.811 19.8773C27.3005 22.0027 25.5851 23.9747 23.6893 25.765L22.8594 24.9351L23.2102 24.5842C23.2225 24.5723 23.2323 24.5581 23.239 24.5424C23.2458 24.5267 23.2493 24.5098 23.2494 24.4927C23.2495 24.4756 23.2463 24.4586 23.2398 24.4428C23.2333 24.427 23.2237 24.4126 23.2116 24.4005C23.1995 24.3885 23.1851 24.3789 23.1692 24.3725C23.1534 24.366 23.1364 24.3628 23.1193 24.363C23.1022 24.3631 23.0853 24.3667 23.0696 24.3735C23.0539 24.3803 23.0397 24.3901 23.0279 24.4024L22.6771 24.7532L22.1181 24.1943L22.1686 24.1438C22.1806 24.1318 22.1901 24.1176 22.1966 24.102C22.203 24.0863 22.2064 24.0695 22.2064 24.0526C22.2064 24.0357 22.203 24.0189 22.1966 24.0033C22.1901 23.9876 22.1806 23.9734 22.1686 23.9614C22.1566 23.9495 22.1424 23.94 22.1268 23.9335C22.1111 23.927 22.0944 23.9237 22.0774 23.9237C22.0605 23.9237 22.0437 23.927 22.0281 23.9335C22.0124 23.94 21.9982 23.9495 21.9862 23.9614L21.9358 24.0119L21.4778 23.5539L22.3968 22.6349L23.1644 23.4025L22.8125 23.7543C22.8006 23.7663 22.7911 23.7805 22.7846 23.7962C22.7781 23.8118 22.7748 23.8286 22.7748 23.8455C22.7748 23.8625 22.7781 23.8792 22.7846 23.8949C22.7911 23.9105 22.8006 23.9247 22.8125 23.9367C22.8245 23.9487 22.8387 23.9582 22.8544 23.9647C22.87 23.9711 22.8868 23.9745 22.9037 23.9745C22.9207 23.9745 22.9374 23.9711 22.9531 23.9647C22.9687 23.9582 22.9829 23.9487 22.9949 23.9367L23.3468 23.5849L24.4708 24.7089C24.4828 24.7209 24.497 24.7304 24.5127 24.7369C24.5283 24.7433 24.5451 24.7467 24.562 24.7467C24.5789 24.7467 24.5957 24.7433 24.6113 24.7369C24.627 24.7304 24.6412 24.7209 24.6532 24.7089C24.6652 24.6969 24.6747 24.6827 24.6811 24.6671C24.6876 24.6514 24.691 24.6347 24.691 24.6177C24.691 24.6008 24.6876 24.584 24.6811 24.5684C24.6747 24.5527 24.6652 24.5385 24.6532 24.5265L23.5291 23.4025L24.8814 22.0502L25.5835 22.7524L25.106 23.2299C25.0818 23.2541 25.0682 23.2869 25.0682 23.3211C25.0682 23.3553 25.0818 23.3881 25.106 23.4123C25.1302 23.4365 25.163 23.45 25.1972 23.45C25.2314 23.45 25.2642 23.4365 25.2884 23.4123L25.7659 22.9347L25.9673 23.1362C25.9915 23.1603 26.0243 23.1739 26.0585 23.1739C26.0927 23.1739 26.1255 23.1603 26.1497 23.1362C26.1739 23.112 26.1875 23.0792 26.1875 23.045C26.1875 23.0108 26.1739 22.978 26.1497 22.9538L25.9483 22.7524L27.2758 21.4248C27.2878 21.4129 27.2973 21.3986 27.3038 21.383C27.3103 21.3674 27.3137 21.3506 27.3137 21.3336C27.3137 21.3167 27.3103 21.2999 27.3038 21.2843C27.2973 21.2686 27.2878 21.2544 27.2758 21.2425C27.2727 21.2394 27.2681 21.2404 27.265 21.2378C27.2856 21.214 27.2965 21.1833 27.2955 21.1518C27.2946 21.1203 27.2818 21.0904 27.2598 21.0678L26.5232 20.3317C26.5214 20.3039 26.5106 20.2775 26.4923 20.2565C26.4715 20.2381 26.4452 20.2272 26.4176 20.2255L25.617 19.4255C25.6051 19.4135 25.5908 19.404 25.5752 19.3976C25.5595 19.3911 25.5428 19.3878 25.5258 19.3878C25.5089 19.3878 25.4921 19.3911 25.4765 19.3976C25.4609 19.404 25.4466 19.4135 25.4347 19.4255C25.4227 19.4375 25.4132 19.4517 25.4067 19.4674C25.4002 19.483 25.3969 19.4998 25.3969 19.5167C25.3969 19.5336 25.4002 19.5504 25.4067 19.566C25.4132 19.5817 25.4227 19.5959 25.4347 19.6079L26.1971 20.3703L24.8819 21.686L24.1143 20.9184L25.1781 19.8541C25.1901 19.8421 25.1996 19.8279 25.2061 19.8123C25.2126 19.7966 25.2159 19.7799 25.2159 19.7629C25.2159 19.746 25.2126 19.7292 25.2061 19.7136C25.1996 19.698 25.1901 19.6837 25.1781 19.6718C25.1661 19.6598 25.1519 19.6503 25.1363 19.6438C25.1206 19.6373 25.1039 19.634 25.0869 19.634C25.07 19.634 25.0532 19.6373 25.0376 19.6438C25.0219 19.6503 25.0077 19.6598 24.9958 19.6718L23.932 20.7361L23.9206 20.7247C23.8965 20.7005 23.8637 20.687 23.8295 20.687C23.7953 20.687 23.7625 20.7005 23.7383 20.7247C23.7141 20.7489 23.7005 20.7817 23.7005 20.8159C23.7005 20.8501 23.7141 20.8829 23.7383 20.9071L23.7496 20.9184L22.3973 22.2707L22.1516 22.025C22.1274 22.0008 22.0946 21.9872 22.0604 21.9872C22.0262 21.9872 21.9934 22.0008 21.9692 22.025C21.9451 22.0492 21.9315 22.082 21.9315 22.1162C21.9315 22.1504 21.9451 22.1832 21.9692 22.2073L22.215 22.4531L21.2959 23.3721L20.8153 22.8915C20.8033 22.8795 20.7891 22.87 20.7735 22.8635C20.7578 22.857 20.7411 22.8537 20.7241 22.8537C20.7072 22.8537 20.6904 22.857 20.6748 22.8635C20.6591 22.87 20.6449 22.8795 20.6329 22.8915C20.621 22.9034 20.6115 22.9176 20.605 22.9333C20.5985 22.9489 20.5952 22.9657 20.5952 22.9826C20.5952 22.9996 20.5985 23.0163 20.605 23.032C20.6115 23.0476 20.621 23.0618 20.6329 23.0738L21.1136 23.5545L20.2492 24.4194L19.5882 23.7585C19.5763 23.7461 19.5622 23.7363 19.5464 23.7295C19.5307 23.7228 19.5139 23.7192 19.4968 23.719C19.4797 23.7188 19.4627 23.7221 19.4469 23.7285C19.431 23.735 19.4166 23.7445 19.4045 23.7566C19.3924 23.7687 19.3828 23.783 19.3763 23.7989C19.3698 23.8147 19.3665 23.8316 19.3667 23.8487C19.3668 23.8658 19.3703 23.8827 19.377 23.8985C19.3838 23.9142 19.3936 23.9284 19.4058 23.9403L20.7066 25.2411L19.7695 26.1781L18.8067 25.2153L19.5501 24.4714C19.5621 24.4595 19.5716 24.4452 19.578 24.4296C19.5845 24.4139 19.5879 24.3972 19.5879 24.3802C19.5879 24.3633 19.5845 24.3465 19.578 24.3309C19.5716 24.3153 19.5621 24.301 19.5501 24.2891C19.5381 24.2771 19.5239 24.2676 19.5083 24.2611C19.4926 24.2546 19.4758 24.2513 19.4589 24.2513C19.442 24.2513 19.4252 24.2546 19.4096 24.2611C19.3939 24.2676 19.3797 24.2771 19.3677 24.2891L18.6141 25.0427C18.5656 25.018 18.5074 25.017 18.4672 25.0572C18.4265 25.0979 18.4276 25.1556 18.4528 25.204L17.1989 26.4579L16.9172 26.1761C16.9053 26.1638 16.891 26.154 16.8753 26.1473C16.8596 26.1405 16.8427 26.137 16.8256 26.1369C16.8085 26.1368 16.7915 26.14 16.7757 26.1465C16.7599 26.153 16.7455 26.1626 16.7335 26.1747C16.7214 26.1868 16.7118 26.2012 16.7054 26.2171C16.6989 26.2329 16.6957 26.2499 16.6959 26.267C16.696 26.2841 16.6996 26.301 16.7064 26.3167C16.7132 26.3324 16.723 26.3466 16.7353 26.3584L17.0171 26.6402L16.0259 27.6314L15.8343 27.4397C15.8223 27.4278 15.8081 27.4183 15.7925 27.4118C15.7768 27.4053 15.7601 27.402 15.7431 27.402C15.7262 27.402 15.7094 27.4053 15.6938 27.4118C15.6781 27.4183 15.6639 27.4278 15.6519 27.4397C15.64 27.4517 15.6305 27.4659 15.624 27.4816C15.6175 27.4972 15.6142 27.514 15.6142 27.5309C15.6142 27.5478 15.6175 27.5646 15.624 27.5803C15.6305 27.5959 15.64 27.6101 15.6519 27.6221L15.8436 27.8137L14.9786 28.6787L14.4619 28.162C14.45 28.15 14.4357 28.1405 14.4201 28.134C14.4045 28.1275 14.3877 28.1242 14.3708 28.1242C14.3538 28.1242 14.3371 28.1275 14.3214 28.134C14.3058 28.1405 14.2915 28.15 14.2796 28.162C14.2676 28.1739 14.2581 28.1882 14.2516 28.2038C14.2451 28.2195 14.2418 28.2362 14.2418 28.2532C14.2418 28.2701 14.2451 28.2869 14.2516 28.3025C14.2581 28.3181 14.2676 28.3324 14.2796 28.3443L14.7963 28.861L14.1822 29.4751C5.28915 20.0004 2.23585 17.4896 1.44767 13.8294C0.870697 11.1517 1.93964 8.0927 4.10842 6.21806ZM22.5802 22.4525L23.9325 21.1003L24.7001 21.8679L23.3478 23.2201L22.5802 22.4525ZM27.0785 21.2502C27.0801 21.2517 27.0826 21.2512 27.0842 21.2528L25.7664 22.5705L25.0643 21.8684L26.38 20.5522L27.0785 21.2502Z" fill="#840D06"/>
<path d="M10.7139 16.4217C10.7139 16.4901 10.741 16.5556 10.7893 16.6039C10.8376 16.6522 10.9031 16.6793 10.9715 16.6793H14.1886C14.2344 16.6793 14.2794 16.667 14.319 16.6439C14.3585 16.6207 14.3912 16.5874 14.4137 16.5474C15.0272 15.4486 15.6161 14.409 16.2208 13.3324C16.4717 16.125 16.669 18.9754 16.9359 21.7968C16.9413 21.8547 16.9662 21.909 17.0065 21.951C17.0468 21.9929 17.1 22.02 17.1577 22.0278C17.2153 22.0356 17.2738 22.0237 17.3238 21.9941C17.3738 21.9644 17.4123 21.9186 17.433 21.8643C18.096 20.1185 18.7085 18.4406 19.3751 16.6788H22.43C22.4983 16.6788 22.5638 16.6517 22.6121 16.6034C22.6604 16.5551 22.6875 16.4895 22.6875 16.4212C22.6875 16.3529 22.6604 16.2874 22.6121 16.2391C22.5638 16.1908 22.4983 16.1637 22.43 16.1637H19.4158C19.2845 16.0426 19.0465 16.092 18.9857 16.2543C18.4329 17.7096 17.9672 18.9795 17.3475 20.6331C17.109 17.9378 16.9158 15.1828 16.6582 12.4587C16.6531 12.4039 16.6305 12.3522 16.5939 12.3112C16.5573 12.2701 16.5084 12.2419 16.4546 12.2306C16.4008 12.2193 16.3447 12.2256 16.2947 12.2484C16.2446 12.2713 16.2032 12.3096 16.1765 12.3577C15.4064 13.7352 14.7398 14.9093 14.0382 16.1642H10.9725C10.9386 16.164 10.905 16.1706 10.8736 16.1835C10.8422 16.1964 10.8137 16.2153 10.7897 16.2392C10.7657 16.2632 10.7466 16.2916 10.7336 16.3229C10.7206 16.3543 10.7139 16.3878 10.7139 16.4217ZM30.0594 15.956C30.0713 15.968 30.0855 15.9776 30.1012 15.984C30.1168 15.9905 30.1336 15.9939 30.1505 15.9939C30.1675 15.9939 30.1843 15.9905 30.1999 15.984C30.2156 15.9776 30.2298 15.968 30.2417 15.956L30.8141 15.3837L31.0675 15.6377C31.0795 15.6497 31.0937 15.6592 31.1093 15.6656C31.125 15.6721 31.1418 15.6755 31.1587 15.6755C31.1756 15.6755 31.1924 15.6721 31.208 15.6656C31.2237 15.6592 31.2379 15.6497 31.2499 15.6377C31.2619 15.6257 31.2714 15.6115 31.2778 15.5958C31.2843 15.5802 31.2876 15.5634 31.2876 15.5465C31.2876 15.5296 31.2843 15.5128 31.2778 15.4972C31.2714 15.4815 31.2619 15.4673 31.2499 15.4553L30.9964 15.2019L31.6805 14.5177C31.7547 14.5919 31.8299 14.5847 31.8799 14.5347C31.8919 14.5228 31.9014 14.5087 31.9079 14.4931C31.9144 14.4774 31.9177 14.4607 31.9177 14.4438C31.9177 14.4269 31.9144 14.4102 31.9079 14.3946C31.9014 14.379 31.8919 14.3648 31.8799 14.3529L31.8629 14.3359L32.0463 14.1525C32.0586 14.1406 32.0684 14.1264 32.0752 14.1107C32.082 14.095 32.0856 14.0781 32.0857 14.061C32.0859 14.0439 32.0827 14.027 32.0762 14.0111C32.0698 13.9953 32.0602 13.9809 32.0482 13.9688C32.0361 13.9567 32.0217 13.9471 32.0059 13.9406C31.9901 13.9341 31.9731 13.9308 31.956 13.931C31.9389 13.9311 31.922 13.9346 31.9063 13.9413C31.8906 13.9481 31.8764 13.9579 31.8645 13.9701L31.6811 14.1535L31.2777 13.7502L31.7753 13.252C31.7995 13.2278 31.8131 13.195 31.8131 13.1608C31.8131 13.1266 31.7995 13.0938 31.7753 13.0697C31.7511 13.0455 31.7183 13.0319 31.6842 13.0319C31.65 13.0319 31.6172 13.0455 31.593 13.0697L30.4555 14.2071C30.4435 14.2191 30.434 14.2333 30.4276 14.2489C30.4211 14.2646 30.4177 14.2814 30.4177 14.2983C30.4177 14.3152 30.4211 14.332 30.4276 14.3476C30.434 14.3633 30.4435 14.3775 30.4555 14.3895C30.4675 14.4014 30.4817 14.4109 30.4973 14.4174C30.513 14.4239 30.5298 14.4272 30.5467 14.4272C30.5636 14.4272 30.5804 14.4239 30.596 14.4174C30.6117 14.4109 30.6259 14.4014 30.6379 14.3895L31.0953 13.932L31.4987 14.3354L30.8146 15.0195L30.2752 14.4796C30.2632 14.4676 30.249 14.4582 30.2334 14.4517C30.2177 14.4452 30.201 14.4419 30.184 14.4419C30.1671 14.4419 30.1503 14.4452 30.1347 14.4517C30.119 14.4582 30.1048 14.4676 30.0928 14.4796C30.0809 14.4916 30.0714 14.5058 30.0649 14.5215C30.0584 14.5371 30.0551 14.5539 30.0551 14.5708C30.0551 14.5877 30.0584 14.6045 30.0649 14.6202C30.0714 14.6358 30.0809 14.65 30.0928 14.662L30.6322 15.2019L30.0599 15.7742C30.0357 15.7983 30.0221 15.8309 30.022 15.865C30.0219 15.8991 30.0354 15.9318 30.0594 15.956ZM7.00685 12.3031L8.11185 11.1981L9.27506 12.3613C9.26682 12.402 9.27145 12.4443 9.30288 12.4757C9.34718 12.5195 9.37448 12.5123 9.41724 12.5035L9.49761 12.5844C9.50958 12.5964 9.52379 12.6059 9.53944 12.6123C9.55508 12.6188 9.57185 12.6222 9.58879 12.6222C9.60572 12.6222 9.62249 12.6188 9.63813 12.6123C9.65378 12.6059 9.66799 12.5964 9.67997 12.5844C9.69194 12.5724 9.70144 12.5582 9.70792 12.5425C9.7144 12.5269 9.71774 12.5101 9.71774 12.4932C9.71774 12.4763 9.7144 12.4595 9.70792 12.4439C9.70144 12.4282 9.69194 12.414 9.67997 12.402L9.61918 12.3412L10.071 11.8894L11.6757 13.4941C11.6876 13.5064 11.7018 13.5162 11.7175 13.5229C11.7332 13.5297 11.7501 13.5332 11.7672 13.5333C11.7843 13.5334 11.8013 13.5302 11.8171 13.5237C11.8329 13.5172 11.8473 13.5076 11.8594 13.4955C11.8714 13.4834 11.881 13.469 11.8874 13.4531C11.8939 13.4373 11.8971 13.4203 11.897 13.4032C11.8968 13.3861 11.8932 13.3692 11.8864 13.3535C11.8797 13.3378 11.8698 13.3236 11.8575 13.3118L10.2528 11.7071L10.7767 11.1832L11.6056 12.012C11.6175 12.0243 11.6317 12.0341 11.6474 12.0408C11.6632 12.0476 11.6801 12.0511 11.6972 12.0512C11.7143 12.0514 11.7312 12.0481 11.747 12.0416C11.7629 12.0351 11.7772 12.0255 11.7893 12.0134C11.8014 12.0013 11.8109 11.9869 11.8174 11.971C11.8238 11.9552 11.8271 11.9382 11.8269 11.9211C11.8267 11.904 11.8231 11.8872 11.8164 11.8714C11.8096 11.8557 11.7998 11.8415 11.7875 11.8297L10.9586 11.0008L11.857 10.1024L12.8131 11.0585L11.5495 12.3222C11.5253 12.3464 11.5117 12.3792 11.5117 12.4134C11.5117 12.4476 11.5253 12.4804 11.5495 12.5045C11.5736 12.5287 11.6064 12.5423 11.6406 12.5423C11.6748 12.5423 11.7076 12.5287 11.7318 12.5045L12.9955 11.2409L13.6137 11.859C13.6378 11.8832 13.6706 11.8968 13.7048 11.8968C13.739 11.8968 13.7718 11.8832 13.796 11.859C13.8202 11.8349 13.8338 11.8021 13.8338 11.7679C13.8338 11.7337 13.8202 11.7009 13.796 11.6767L13.1778 11.0585L13.5081 10.7283C13.5204 10.7164 13.5302 10.7022 13.537 10.6865C13.5437 10.6708 13.5473 10.6539 13.5475 10.6368C13.5477 10.6197 13.5444 10.6028 13.538 10.5869C13.5315 10.5711 13.522 10.5567 13.5099 10.5446C13.4978 10.5325 13.4835 10.5229 13.4677 10.5164C13.4518 10.5099 13.4349 10.5066 13.4178 10.5067C13.4007 10.5069 13.3838 10.5104 13.3681 10.5171C13.3523 10.5239 13.3381 10.5336 13.3262 10.5459L12.996 10.8761L12.0399 9.92002L12.3552 9.60475C12.3671 9.59277 12.3766 9.57856 12.3831 9.56291C12.3896 9.54727 12.3929 9.5305 12.3929 9.51356C12.3929 9.49663 12.3896 9.47986 12.3831 9.46422C12.3766 9.44857 12.3671 9.43436 12.3552 9.42238C12.3432 9.41041 12.329 9.40091 12.3133 9.39443C12.2977 9.38795 12.2809 9.38461 12.264 9.38461C12.247 9.38461 12.2303 9.38795 12.2146 9.39443C12.199 9.40091 12.1848 9.41041 12.1728 9.42238L11.8575 9.73765L11.449 9.32914L12.1795 8.59865C12.1918 8.58679 12.2016 8.57259 12.2084 8.55689C12.2152 8.54119 12.2187 8.52429 12.2189 8.50719C12.2191 8.4901 12.2159 8.47313 12.2094 8.4573C12.203 8.44146 12.1934 8.42707 12.1813 8.41496C12.1693 8.40285 12.1549 8.39327 12.1391 8.38677C12.1233 8.38027 12.1063 8.37699 12.0892 8.37711C12.0721 8.37724 12.0552 8.38076 12.0395 8.38749C12.0238 8.39422 12.0095 8.40401 11.9976 8.41629L11.2666 9.14678L10.7149 8.59505L11.2656 8.04435C11.2898 8.02017 11.3034 7.98737 11.3034 7.95317C11.3034 7.91897 11.2898 7.88617 11.2656 7.86199C11.2536 7.85001 11.2394 7.84052 11.2238 7.83403C11.2081 7.82755 11.1914 7.82422 11.1744 7.82422C11.1402 7.82422 11.1074 7.8378 11.0832 7.86199L10.5325 8.41268L10.2631 8.14326C10.2513 8.13094 10.2371 8.12111 10.2214 8.11434C10.2057 8.10757 10.1888 8.104 10.1717 8.10382C10.1546 8.10365 10.1376 8.10689 10.1218 8.11334C10.1059 8.11979 10.0915 8.12934 10.0794 8.14141C10.0673 8.15348 10.0577 8.16785 10.0512 8.18367C10.0447 8.19948 10.0415 8.21644 10.0416 8.23354C10.0417 8.25064 10.0452 8.26754 10.052 8.28326C10.0587 8.29899 10.0685 8.31321 10.0808 8.32511L10.3502 8.59453L9.45176 9.49296L9.02418 9.06538C9.01232 9.05307 8.99812 9.04323 8.98242 9.03646C8.96671 9.02969 8.94982 9.02612 8.93272 9.02594C8.91562 9.02577 8.89866 9.02901 8.88282 9.03546C8.86699 9.04191 8.85259 9.05146 8.84049 9.06353C8.82838 9.07561 8.81879 9.08997 8.8123 9.10579C8.8058 9.12161 8.80252 9.13856 8.80264 9.15566C8.80276 9.17276 8.80629 9.18966 8.81302 9.20538C8.81974 9.22111 8.82953 9.23533 8.84182 9.24723L9.26939 9.67481L8.74548 10.1987L8.7357 10.1889C8.72372 10.177 8.70951 10.1675 8.69386 10.161C8.67822 10.1545 8.66145 10.1512 8.64451 10.1512C8.62758 10.1512 8.61081 10.1545 8.59517 10.161C8.57952 10.1675 8.56531 10.177 8.55333 10.1889C8.54136 10.2009 8.53186 10.2151 8.52538 10.2308C8.5189 10.2464 8.51556 10.2632 8.51556 10.2801C8.51556 10.297 8.5189 10.3138 8.52538 10.3295C8.53186 10.3451 8.54136 10.3593 8.55333 10.3713L8.56312 10.3811L8.11133 10.8329L7.12173 9.84326C7.10975 9.83129 7.09554 9.82179 7.07989 9.81531C7.06425 9.80883 7.04748 9.80549 7.03054 9.80549C7.01361 9.80549 6.99684 9.80883 6.9812 9.81531C6.96555 9.82179 6.95134 9.83129 6.93936 9.84326C6.92739 9.85523 6.91789 9.86945 6.91141 9.88509C6.90493 9.90074 6.90159 9.91751 6.90159 9.93444C6.90159 9.95138 6.90493 9.96814 6.91141 9.98379C6.91789 9.99943 6.92739 10.0136 6.93936 10.0256L7.92897 11.0152L6.82397 12.1202C6.81198 12.1322 6.80246 12.1464 6.79597 12.1621C6.78947 12.1777 6.78613 12.1945 6.78613 12.2114C6.78613 12.2284 6.78947 12.2451 6.79597 12.2608C6.80246 12.2764 6.81198 12.2906 6.82397 12.3026C6.83591 12.3147 6.85012 12.3243 6.8658 12.3309C6.88148 12.3375 6.8983 12.3409 6.9153 12.3409C6.9323 12.341 6.94915 12.3377 6.96486 12.3312C6.98057 12.3247 6.99484 12.3151 7.00685 12.3031ZM11.6762 9.92105L10.7778 10.8195L10.3692 10.411L11.2677 9.51253L11.6762 9.92105ZM10.5325 8.77741L11.0853 9.33017L10.1869 10.2286L9.63412 9.67584L10.5325 8.77741ZM9.45176 9.8582L10.0045 10.411L9.64906 10.7664C9.63709 10.7784 9.62759 10.7926 9.62111 10.8082C9.61463 10.8239 9.61129 10.8407 9.61129 10.8576C9.61129 10.8745 9.61463 10.8913 9.62111 10.9069C9.62759 10.9226 9.63709 10.9368 9.64906 10.9488C9.66103 10.9608 9.67525 10.9702 9.69089 10.9767C9.70654 10.9832 9.72331 10.9865 9.74024 10.9865C9.75718 10.9865 9.77394 10.9832 9.78959 10.9767C9.80523 10.9702 9.81945 10.9608 9.83142 10.9488L10.1869 10.5933L10.5954 11.0018L10.0715 11.5257L8.92785 10.3821L9.45176 9.8582ZM8.746 10.564L9.88964 11.7076L9.43785 12.1594L8.29421 11.0157L8.746 10.564Z" fill="#840D06"/>
</g>
<defs>
<clipPath id="clip0_3042_36405">
<rect width="34" height="34" fill="white" transform="translate(0 0.5)"/>
</clipPath>
</defs>
</svg>
