<svg width="28" height="28" viewBox="0 0 28 28" fill="none" xmlns="http://www.w3.org/2000/svg">
<path d="M24.5368 24.5369C24.8715 24.2022 24.8715 23.6596 24.5368 23.3249L18.6697 17.4577C20.2252 15.5903 21.0009 13.195 20.8354 10.7702C20.6699 8.34542 19.5759 6.07778 17.781 4.43903C15.9862 2.80028 13.6286 1.91659 11.1988 1.9718C8.76899 2.02701 6.454 3.01686 4.73542 4.73545C3.01683 6.45403 2.02698 8.76902 1.97177 11.1988C1.91656 13.6286 2.80025 15.9862 4.43899 17.7811C6.07774 19.5759 8.34539 20.6699 10.7702 20.8354C13.195 21.001 15.5902 20.2253 17.4577 18.6697L23.3248 24.5369C23.6595 24.8716 24.2022 24.8716 24.5368 24.5369ZM3.71427 11.4286C3.71427 9.90284 4.1667 8.41136 5.01436 7.14276C5.86202 5.87415 7.06682 4.88539 8.47642 4.30151C9.88602 3.71764 11.4371 3.56487 12.9335 3.86253C14.43 4.16018 15.8045 4.8949 16.8834 5.97376C17.9622 7.05262 18.697 8.42718 18.9946 9.9236C19.2923 11.42 19.1395 12.9711 18.5556 14.3807C17.9717 15.7903 16.983 16.9951 15.7144 17.8428C14.4458 18.6904 12.9543 19.1429 11.4286 19.1429C9.38329 19.1406 7.42245 18.3271 5.97623 16.8809C4.53002 15.4347 3.71654 13.4738 3.71427 11.4286Z" fill="#1A1A1A"/>
</svg>
