<svg width="14" height="14" viewBox="0 0 14 14" fill="none" xmlns="http://www.w3.org/2000/svg">
<path d="M7.47944 4.27085C6.70975 5.15627 6.50468 5.85639 6.50468 5.85639C6.50468 5.85639 3.56038 4.6916 3.43756 3.16971C3.41922 0.839569 7.6734 0.000335693 7.6734 0.000335693C7.6734 0.000335693 7.53113 0.885756 8.75375 2.36596C8.97105 2.64364 9.49288 3.29531 9.49288 3.29531C9.49288 3.29531 8.35307 3.33812 7.47944 4.27085Z" fill="#840D06"/>
<path d="M4.00573 5.71846C4.60148 6.73286 5.19556 7.14291 5.19556 7.14291C5.19556 7.14291 3.20157 9.62794 1.73276 9.28042C-0.4613 8.58537 0.0522023 4.22474 0.0522023 4.22474C0.0522023 4.22474 0.841351 4.63309 2.60582 3.90594C2.93315 3.78146 3.70396 3.47787 3.70396 3.47787C3.70396 3.47787 3.39608 4.58972 4.00573 5.71902V5.71846Z" fill="#840D06"/>
<path d="M4.30372 9.52162C5.4402 9.26253 6.01095 8.8187 6.01095 8.8187C6.01095 8.8187 7.71984 11.5121 6.93681 12.8194C5.60248 14.717 1.67285 12.8634 1.67285 12.8634C1.67285 12.8634 2.30139 12.2308 2.16913 10.3057C2.15412 9.95138 2.10911 9.11327 2.10911 9.11327C2.10911 9.11327 3.05608 9.75706 4.30427 9.52219L4.30372 9.52162Z" fill="#840D06"/>
<path d="M7.96879 10.4204C8.08327 9.24546 7.84542 8.55718 7.84542 8.55718C7.84542 8.55718 10.9064 7.75794 11.8845 8.92104C13.2433 10.8 10.2745 13.9998 10.2745 13.9998C10.2745 13.9998 9.87886 13.1972 8.03381 12.7207C7.69648 12.6232 6.89844 12.4041 6.89844 12.4041C6.89844 12.4041 7.79762 11.6956 7.96879 10.4204Z" fill="#840D06"/>
<path d="M9.93652 7.16854C8.86505 6.70386 8.14648 6.72583 8.14648 6.72583C8.14648 6.72583 8.3171 3.52716 9.707 2.93238C11.8844 2.18721 14.0001 6.02008 14.0001 6.02008C14.0001 6.02008 13.1259 6.15977 12.12 7.79937C11.9272 8.09507 11.4809 8.80082 11.4809 8.80082C11.4809 8.80082 11.0841 7.71826 9.93707 7.16854H9.93652Z" fill="#840D06"/>
</svg>
