<svg width="740" height="30" viewBox="0 0 740 30" fill="none" xmlns="http://www.w3.org/2000/svg">
<rect x="0.5" y="0.5" width="29" height="29" stroke="#1A1A1A"/>
<path d="M7.33301 13.3333L13.9997 20L23.9997 10" stroke="#1A1A1A"/>
<path d="M47.672 22.5V6.77H49.278V13.568H58.188V6.77H59.772V22.5H58.188V14.976H49.278V22.5H47.672ZM65.6969 22.786C63.4529 22.786 62.0229 21.532 62.0229 19.662C62.0229 17.242 63.7389 16.472 66.6429 15.966C68.4909 15.636 69.6789 15.504 69.6789 14.162C69.6789 13.018 68.9309 12.248 67.1269 12.248C64.9489 12.248 64.1789 13.018 64.0689 14.668H62.5509C62.6609 12.688 63.9149 10.994 67.1709 10.994C69.2389 10.994 71.0649 11.874 71.0649 14.558V20.168C71.0649 21.07 71.1969 21.488 71.7029 21.488C71.7909 21.488 71.8789 21.488 72.0109 21.466V22.5C71.7689 22.544 71.5269 22.588 71.2629 22.588C70.3169 22.588 69.7669 22.214 69.6789 20.806H69.6349C68.8649 22.082 67.5229 22.786 65.6969 22.786ZM63.5189 19.53C63.5189 20.828 64.2449 21.532 65.8729 21.532C68.1609 21.532 69.6789 20.322 69.6789 18.298V16.208C69.3489 16.67 68.1609 16.934 66.8189 17.154C64.6409 17.55 63.5189 18.1 63.5189 19.53ZM72.7077 22.5L76.5137 16.912L72.6857 11.28H74.2917L77.7017 16.34H78.9337V11.28H80.3637V16.34H81.5957L85.0057 11.28H86.5897L82.7837 16.912L86.5897 22.5H84.8297L81.5297 17.594H80.3637V22.5H78.9337V17.594H77.7237L74.4237 22.5H72.7077ZM88.0114 22.5V11.28H89.4414V20.432L96.1734 11.28H97.6034V22.5H96.1734V13.348L89.4414 22.5H88.0114ZM100.236 22.5V11.28H102.106L106.154 20.454H106.198L110.246 11.28H112.05V22.5H110.62V13.722H110.576L106.726 22.478H105.516L101.71 13.722H101.666V22.5H100.236ZM117.775 22.786C115.531 22.786 114.101 21.532 114.101 19.662C114.101 17.242 115.817 16.472 118.721 15.966C120.569 15.636 121.757 15.504 121.757 14.162C121.757 13.018 121.009 12.248 119.205 12.248C117.027 12.248 116.257 13.018 116.147 14.668H114.629C114.739 12.688 115.993 10.994 119.249 10.994C121.317 10.994 123.143 11.874 123.143 14.558V20.168C123.143 21.07 123.275 21.488 123.781 21.488C123.869 21.488 123.957 21.488 124.089 21.466V22.5C123.847 22.544 123.605 22.588 123.341 22.588C122.395 22.588 121.845 22.214 121.757 20.806H121.713C120.943 22.082 119.601 22.786 117.775 22.786ZM115.597 19.53C115.597 20.828 116.323 21.532 117.951 21.532C120.239 21.532 121.757 20.322 121.757 18.298V16.208C121.427 16.67 120.239 16.934 118.897 17.154C116.719 17.55 115.597 18.1 115.597 19.53ZM125.248 22.412C125.71 22.016 125.116 17.814 127.646 17.33V17.308C126.436 17.022 125.578 16.01 125.578 14.602C125.578 12.578 126.964 11.28 129.626 11.28H133.674V22.5H132.244V17.968H129.318C126.48 17.968 127.228 21.862 126.832 22.5H125.248V22.412ZM127.074 14.514C127.074 15.658 127.734 16.714 129.384 16.714H132.244V12.534H129.538C127.734 12.534 127.074 13.458 127.074 14.514ZM148.117 22.5L144.223 17.594H142.551V22.5H141.121V11.28H142.551V16.34H144.289L148.139 11.28H149.811L145.499 16.934L149.943 22.5H148.117ZM158.921 22.5V17.418H152.562V22.5H151.133V11.28H152.562V16.164H158.921V11.28H160.351V22.5H158.921ZM167.766 22.808C164.4 22.808 162.376 20.388 162.376 16.912C162.376 13.414 164.4 10.994 167.766 10.994C171.132 10.994 173.156 13.414 173.156 16.912C173.156 20.388 171.132 22.808 167.766 22.808ZM163.872 16.912C163.872 19.486 165.148 21.554 167.766 21.554C170.384 21.554 171.66 19.486 171.66 16.912C171.66 14.316 170.384 12.248 167.766 12.248C165.148 12.248 163.872 14.316 163.872 16.912ZM175.174 22.5V11.28H184.172V22.5H182.742V12.534H176.604V22.5H175.174ZM193.814 22.5L189.92 17.594H188.248V22.5H186.818V11.28H188.248V16.34H189.986L193.836 11.28H195.508L191.196 16.934L195.64 22.5H193.814ZM197.82 26.438C197.468 26.438 197.204 26.416 196.742 26.35V25.118C197.072 25.162 197.248 25.184 197.6 25.184C198.656 25.184 199.514 24.502 200.13 22.434L195.598 11.28H197.182L200.834 20.63H200.878L204.354 11.28H205.894L201.406 22.83C200.306 25.624 199.316 26.438 197.82 26.438ZM205.848 24.216C206.552 23.952 206.772 23.556 206.75 22.5H205.848V20.652H207.696V22.5C207.696 23.732 207.344 24.7 205.848 25.162V24.216ZM214.318 22.5V11.28H218.872C221.116 11.28 222.326 12.424 222.326 14.184C222.326 15.372 221.446 16.34 220.368 16.648V16.692C221.776 16.912 222.81 17.902 222.81 19.354C222.81 21.312 221.424 22.5 219.202 22.5H214.318ZM215.748 21.246H219.07C220.522 21.246 221.314 20.542 221.314 19.332C221.314 18.078 220.39 17.374 219.136 17.374H215.748V21.246ZM215.748 16.208H218.916C220.016 16.208 220.83 15.328 220.83 14.294C220.83 13.172 220.082 12.534 218.784 12.534H215.748V16.208ZM224.802 22.5V11.28H226.232V15.658H228.52C230.786 15.658 232.128 17 232.128 19.09C232.128 21.158 230.72 22.5 228.498 22.5H224.802ZM226.232 21.246H228.52C229.818 21.246 230.632 20.432 230.632 19.09C230.632 17.748 229.906 16.912 228.498 16.912H226.232V21.246ZM233.558 22.5V11.28H234.988V22.5H233.558ZM241.017 25.36V21.246H241.765C242.447 21.246 242.909 20.388 242.997 19.31L243.503 11.28H250.631V21.246H251.995V25.36H250.763V22.5H242.271V25.36H241.017ZM243.745 21.246H249.223V12.534H244.823L244.405 19.222C244.361 20.124 244.141 20.784 243.745 21.202V21.246ZM256.929 22.786C254.685 22.786 253.255 21.532 253.255 19.662C253.255 17.242 254.971 16.472 257.875 15.966C259.723 15.636 260.911 15.504 260.911 14.162C260.911 13.018 260.163 12.248 258.359 12.248C256.181 12.248 255.411 13.018 255.301 14.668H253.783C253.893 12.688 255.147 10.994 258.403 10.994C260.471 10.994 262.297 11.874 262.297 14.558V20.168C262.297 21.07 262.429 21.488 262.935 21.488C263.023 21.488 263.111 21.488 263.243 21.466V22.5C263.001 22.544 262.759 22.588 262.495 22.588C261.549 22.588 260.999 22.214 260.911 20.806H260.867C260.097 22.082 258.755 22.786 256.929 22.786ZM254.751 19.53C254.751 20.828 255.477 21.532 257.105 21.532C259.393 21.532 260.911 20.322 260.911 18.298V16.208C260.581 16.67 259.393 16.934 258.051 17.154C255.873 17.55 254.751 18.1 254.751 19.53ZM269.795 22.808C266.363 22.808 264.449 20.3 264.449 16.89C264.449 13.304 266.561 10.994 269.795 10.994C273.029 10.994 274.855 13.26 274.855 16.384C274.855 16.692 274.855 17 274.833 17.176H265.945C265.967 19.442 267.177 21.576 269.817 21.576C272.127 21.576 273.029 19.992 273.249 19.068H274.701C274.151 21.114 272.611 22.808 269.795 22.808ZM265.945 15.922H273.337C273.337 13.92 272.039 12.226 269.729 12.226C267.551 12.226 266.055 13.832 265.945 15.922ZM267.133 8.992V7.144H268.981V8.992H267.133ZM270.411 8.992V7.144H272.259V8.992H270.411ZM279.094 22.5V12.534H275.266V11.28H284.33V12.534H280.524V22.5H279.094ZM290.054 22.808C286.622 22.808 284.708 20.3 284.708 16.89C284.708 13.304 286.82 10.994 290.054 10.994C293.288 10.994 295.114 13.26 295.114 16.384C295.114 16.692 295.114 17 295.092 17.176H286.204C286.226 19.442 287.436 21.576 290.076 21.576C292.386 21.576 293.288 19.992 293.508 19.068H294.96C294.41 21.114 292.87 22.808 290.054 22.808ZM286.204 15.922H293.596C293.596 13.92 292.298 12.226 289.988 12.226C287.81 12.226 286.314 13.832 286.204 15.922ZM306.683 22.786C303.471 22.786 301.315 20.41 301.315 16.89C301.315 13.392 303.471 11.016 306.683 11.016C309.411 11.016 311.259 12.842 311.501 15.218H310.005C309.917 13.964 309.015 12.27 306.683 12.27C303.933 12.27 302.811 14.602 302.811 16.89C302.811 19.2 303.933 21.554 306.683 21.554C309.037 21.554 309.917 19.86 310.005 18.496H311.501C311.347 20.916 309.411 22.786 306.683 22.786ZM318.199 22.808C314.833 22.808 312.809 20.388 312.809 16.912C312.809 13.414 314.833 10.994 318.199 10.994C321.565 10.994 323.589 13.414 323.589 16.912C323.589 20.388 321.565 22.808 318.199 22.808ZM314.305 16.912C314.305 19.486 315.581 21.554 318.199 21.554C320.817 21.554 322.093 19.486 322.093 16.912C322.093 14.316 320.817 12.248 318.199 12.248C315.581 12.248 314.305 14.316 314.305 16.912ZM325.607 22.5V11.28H332.537V12.534H327.037V22.5H325.607ZM333.018 22.808C332.6 22.808 332.182 22.742 331.874 22.632V21.4C332.182 21.51 332.424 21.554 332.798 21.554C333.436 21.554 333.7 21.158 333.766 20.058L334.206 11.28H341.378V22.5H339.948V12.534H335.57L335.174 20.234C335.086 22.104 334.184 22.808 333.018 22.808ZM347.099 22.786C344.855 22.786 343.425 21.532 343.425 19.662C343.425 17.242 345.141 16.472 348.045 15.966C349.893 15.636 351.081 15.504 351.081 14.162C351.081 13.018 350.333 12.248 348.529 12.248C346.351 12.248 345.581 13.018 345.471 14.668H343.953C344.063 12.688 345.317 10.994 348.573 10.994C350.641 10.994 352.467 11.874 352.467 14.558V20.168C352.467 21.07 352.599 21.488 353.105 21.488C353.193 21.488 353.281 21.488 353.413 21.466V22.5C353.171 22.544 352.929 22.588 352.665 22.588C351.719 22.588 351.169 22.214 351.081 20.806H351.037C350.267 22.082 348.925 22.786 347.099 22.786ZM344.921 19.53C344.921 20.828 345.647 21.532 347.275 21.532C349.563 21.532 351.081 20.322 351.081 18.298V16.208C350.751 16.67 349.563 16.934 348.221 17.154C346.043 17.55 344.921 18.1 344.921 19.53ZM359.965 22.786C356.753 22.786 354.597 20.41 354.597 16.89C354.597 13.392 356.753 11.016 359.965 11.016C362.693 11.016 364.541 12.842 364.783 15.218H363.287C363.199 13.964 362.297 12.27 359.965 12.27C357.215 12.27 356.093 14.602 356.093 16.89C356.093 19.2 357.215 21.554 359.965 21.554C362.319 21.554 363.199 19.86 363.287 18.496H364.783C364.629 20.916 362.693 22.786 359.965 22.786ZM366.707 22.5V11.28H368.137V20.432L374.869 11.28H376.299V22.5H374.869V13.348L368.137 22.5H366.707ZM383.683 22.808C380.251 22.808 378.337 20.3 378.337 16.89C378.337 13.304 380.449 10.994 383.683 10.994C386.917 10.994 388.743 13.26 388.743 16.384C388.743 16.692 388.743 17 388.721 17.176H379.833C379.855 19.442 381.065 21.576 383.705 21.576C386.015 21.576 386.917 19.992 387.137 19.068H388.589C388.039 21.114 386.499 22.808 383.683 22.808ZM379.833 15.922H387.225C387.225 13.92 385.927 12.226 383.617 12.226C381.439 12.226 379.943 13.832 379.833 15.922ZM403.348 22.5V17.418H396.99V22.5H395.56V11.28H396.99V16.164H403.348V11.28H404.778V22.5H403.348ZM410.5 22.786C408.256 22.786 406.826 21.532 406.826 19.662C406.826 17.242 408.542 16.472 411.446 15.966C413.294 15.636 414.482 15.504 414.482 14.162C414.482 13.018 413.734 12.248 411.93 12.248C409.752 12.248 408.982 13.018 408.872 14.668H407.354C407.464 12.688 408.718 10.994 411.974 10.994C414.042 10.994 415.868 11.874 415.868 14.558V20.168C415.868 21.07 416 21.488 416.506 21.488C416.594 21.488 416.682 21.488 416.814 21.466V22.5C416.572 22.544 416.33 22.588 416.066 22.588C415.12 22.588 414.57 22.214 414.482 20.806H414.438C413.668 22.082 412.326 22.786 410.5 22.786ZM408.322 19.53C408.322 20.828 409.048 21.532 410.676 21.532C412.964 21.532 414.482 20.322 414.482 18.298V16.208C414.152 16.67 412.964 16.934 411.622 17.154C409.444 17.55 408.322 18.1 408.322 19.53ZM428.307 22.808C424.941 22.808 422.917 20.388 422.917 16.912C422.917 13.414 424.941 10.994 428.307 10.994C431.673 10.994 433.697 13.414 433.697 16.912C433.697 20.388 431.673 22.808 428.307 22.808ZM424.413 16.912C424.413 19.486 425.689 21.554 428.307 21.554C430.925 21.554 432.201 19.486 432.201 16.912C432.201 14.316 430.925 12.248 428.307 12.248C425.689 12.248 424.413 14.316 424.413 16.912ZM440.489 22.808C437.321 22.808 435.341 20.542 435.341 16.076C435.341 12.116 436.265 8.926 439.521 8.31L441.721 7.87C443.085 7.606 443.613 7.144 443.613 6.748H445.175C445.175 8.046 444.119 8.75 442.711 9.036L439.741 9.652C437.827 10.048 437.013 11.698 436.705 13.524H436.749C437.365 12.248 438.773 10.994 440.907 10.994C443.811 10.994 445.483 13.26 445.483 16.78C445.483 20.19 443.745 22.808 440.489 22.808ZM437.013 16.758C437.013 19.508 438.157 21.554 440.489 21.554C442.799 21.554 443.987 19.486 443.987 16.78C443.987 14.118 442.799 12.248 440.533 12.248C438.223 12.248 437.013 14.338 437.013 16.758ZM452.789 22.764C450.831 22.764 449.665 21.796 449.005 20.608H448.961V26.394H447.531V11.28H448.961V13.084H449.005C449.665 12.006 450.831 10.994 452.789 10.994C455.539 10.994 457.739 13.194 457.739 16.89C457.739 20.564 455.539 22.764 452.789 22.764ZM448.961 16.89C448.961 19.706 450.479 21.51 452.635 21.51C454.967 21.51 456.243 19.398 456.243 16.89C456.243 14.36 454.967 12.248 452.635 12.248C450.479 12.248 448.961 14.052 448.961 16.89ZM462.857 22.786C460.613 22.786 459.183 21.532 459.183 19.662C459.183 17.242 460.899 16.472 463.803 15.966C465.651 15.636 466.839 15.504 466.839 14.162C466.839 13.018 466.091 12.248 464.287 12.248C462.109 12.248 461.339 13.018 461.229 14.668H459.711C459.821 12.688 461.075 10.994 464.331 10.994C466.399 10.994 468.225 11.874 468.225 14.558V20.168C468.225 21.07 468.357 21.488 468.863 21.488C468.951 21.488 469.039 21.488 469.171 21.466V22.5C468.929 22.544 468.687 22.588 468.423 22.588C467.477 22.588 466.927 22.214 466.839 20.806H466.795C466.025 22.082 464.683 22.786 462.857 22.786ZM460.679 19.53C460.679 20.828 461.405 21.532 463.033 21.532C465.321 21.532 466.839 20.322 466.839 18.298V16.208C466.509 16.67 465.321 16.934 463.979 17.154C461.801 17.55 460.679 18.1 460.679 19.53ZM475.744 22.808C472.576 22.808 470.596 20.542 470.596 16.076C470.596 12.116 471.52 8.926 474.776 8.31L476.976 7.87C478.34 7.606 478.868 7.144 478.868 6.748H480.43C480.43 8.046 479.374 8.75 477.966 9.036L474.996 9.652C473.082 10.048 472.268 11.698 471.96 13.524H472.004C472.62 12.248 474.028 10.994 476.162 10.994C479.066 10.994 480.738 13.26 480.738 16.78C480.738 20.19 479 22.808 475.744 22.808ZM472.268 16.758C472.268 19.508 473.412 21.554 475.744 21.554C478.054 21.554 479.242 19.486 479.242 16.78C479.242 14.118 478.054 12.248 475.788 12.248C473.478 12.248 472.268 14.338 472.268 16.758ZM487.561 22.808C484.195 22.808 482.171 20.388 482.171 16.912C482.171 13.414 484.195 10.994 487.561 10.994C490.927 10.994 492.951 13.414 492.951 16.912C492.951 20.388 490.927 22.808 487.561 22.808ZM483.667 16.912C483.667 19.486 484.943 21.554 487.561 21.554C490.179 21.554 491.455 19.486 491.455 16.912C491.455 14.316 490.179 12.248 487.561 12.248C484.943 12.248 483.667 14.316 483.667 16.912ZM497.139 22.5V12.534H493.311V11.28H502.375V12.534H498.569V22.5H497.139ZM510.945 22.5L507.051 17.594H505.379V22.5H503.949V11.28H505.379V16.34H507.117L510.967 11.28H512.639L508.327 16.934L512.771 22.5H510.945ZM514.951 26.438C514.599 26.438 514.335 26.416 513.873 26.35V25.118C514.203 25.162 514.379 25.184 514.731 25.184C515.787 25.184 516.645 24.502 517.261 22.434L512.729 11.28H514.313L517.965 20.63H518.009L521.485 11.28H523.025L518.537 22.83C517.437 25.624 516.447 26.438 514.951 26.438ZM528.849 22.5V11.28H537.847V22.5H536.417V12.534H530.279V22.5H528.849ZM545.246 22.808C541.814 22.808 539.9 20.3 539.9 16.89C539.9 13.304 542.012 10.994 545.246 10.994C548.48 10.994 550.306 13.26 550.306 16.384C550.306 16.692 550.306 17 550.284 17.176H541.396C541.418 19.442 542.628 21.576 545.268 21.576C547.578 21.576 548.48 19.992 548.7 19.068H550.152C549.602 21.114 548.062 22.808 545.246 22.808ZM541.396 15.922H548.788C548.788 13.92 547.49 12.226 545.18 12.226C543.002 12.226 541.506 13.832 541.396 15.922ZM557.568 22.764C555.61 22.764 554.444 21.796 553.784 20.608H553.74V26.394H552.31V11.28H553.74V13.084H553.784C554.444 12.006 555.61 10.994 557.568 10.994C560.318 10.994 562.518 13.194 562.518 16.89C562.518 20.564 560.318 22.764 557.568 22.764ZM553.74 16.89C553.74 19.706 555.258 21.51 557.414 21.51C559.746 21.51 561.022 19.398 561.022 16.89C561.022 14.36 559.746 12.248 557.414 12.248C555.258 12.248 553.74 14.052 553.74 16.89ZM569.308 22.786C566.096 22.786 563.94 20.41 563.94 16.89C563.94 13.392 566.096 11.016 569.308 11.016C572.036 11.016 573.884 12.842 574.126 15.218H572.63C572.542 13.964 571.64 12.27 569.308 12.27C566.558 12.27 565.436 14.602 565.436 16.89C565.436 19.2 566.558 21.554 569.308 21.554C571.662 21.554 572.542 19.86 572.63 18.496H574.126C573.972 20.916 572.036 22.786 569.308 22.786ZM580.824 22.808C577.458 22.808 575.434 20.388 575.434 16.912C575.434 13.414 577.458 10.994 580.824 10.994C584.19 10.994 586.214 13.414 586.214 16.912C586.214 20.388 584.19 22.808 580.824 22.808ZM576.93 16.912C576.93 19.486 578.206 21.554 580.824 21.554C583.442 21.554 584.718 19.486 584.718 16.912C584.718 14.316 583.442 12.248 580.824 12.248C578.206 12.248 576.93 14.316 576.93 16.912ZM596.02 22.5V17.418H589.662V22.5H588.232V11.28H589.662V16.164H596.02V11.28H597.45V22.5H596.02ZM603.171 22.786C600.927 22.786 599.497 21.532 599.497 19.662C599.497 17.242 601.213 16.472 604.117 15.966C605.965 15.636 607.153 15.504 607.153 14.162C607.153 13.018 606.405 12.248 604.601 12.248C602.423 12.248 601.653 13.018 601.543 14.668H600.025C600.135 12.688 601.389 10.994 604.645 10.994C606.713 10.994 608.539 11.874 608.539 14.558V20.168C608.539 21.07 608.671 21.488 609.177 21.488C609.265 21.488 609.353 21.488 609.485 21.466V22.5C609.243 22.544 609.001 22.588 608.737 22.588C607.791 22.588 607.241 22.214 607.153 20.806H607.109C606.339 22.082 604.997 22.786 603.171 22.786ZM600.993 19.53C600.993 20.828 601.719 21.532 603.347 21.532C605.635 21.532 607.153 20.322 607.153 18.298V16.208C606.823 16.67 605.635 16.934 604.293 17.154C602.115 17.55 600.993 18.1 600.993 19.53ZM611.326 22.808C610.908 22.808 610.49 22.742 610.182 22.632V21.4C610.49 21.51 610.732 21.554 611.106 21.554C611.744 21.554 612.008 21.158 612.074 20.058L612.514 11.28H619.686V22.5H618.256V12.534H613.878L613.482 20.234C613.394 22.104 612.492 22.808 611.326 22.808ZM622.328 22.5V11.28H623.758V15.658H626.64C628.906 15.658 630.248 17 630.248 19.09C630.248 21.158 628.84 22.5 626.618 22.5H622.328ZM623.758 21.246H626.64C627.938 21.246 628.752 20.432 628.752 19.09C628.752 17.748 628.026 16.912 626.618 16.912H623.758V21.246ZM639.805 22.5V17.418H633.447V22.5H632.017V11.28H633.447V16.164H639.805V11.28H641.235V22.5H639.805ZM643.877 22.5V11.28H645.307V15.658H647.595C649.861 15.658 651.203 17 651.203 19.09C651.203 21.158 649.795 22.5 647.573 22.5H643.877ZM645.307 21.246H647.595C648.893 21.246 649.707 20.432 649.707 19.09C649.707 17.748 648.981 16.912 647.573 16.912H645.307V21.246ZM652.633 22.5V11.28H654.063V22.5H652.633ZM655.251 22.5L659.651 16.758L655.603 11.28H657.341L660.509 15.746H660.553L663.699 11.28H665.415L661.389 16.758L665.811 22.5H664.073L660.531 17.726H660.487L656.967 22.5H655.251ZM670.017 25.36V21.246H670.765C671.447 21.246 671.909 20.388 671.997 19.31L672.503 11.28H679.631V21.246H680.995V25.36H679.763V22.5H671.271V25.36H670.017ZM672.745 21.246H678.223V12.534H673.823L673.405 19.222C673.361 20.124 673.141 20.784 672.745 21.202V21.246ZM685.929 22.786C683.685 22.786 682.255 21.532 682.255 19.662C682.255 17.242 683.971 16.472 686.875 15.966C688.723 15.636 689.911 15.504 689.911 14.162C689.911 13.018 689.163 12.248 687.359 12.248C685.181 12.248 684.411 13.018 684.301 14.668H682.783C682.893 12.688 684.147 10.994 687.403 10.994C689.471 10.994 691.297 11.874 691.297 14.558V20.168C691.297 21.07 691.429 21.488 691.935 21.488C692.023 21.488 692.111 21.488 692.243 21.466V22.5C692.001 22.544 691.759 22.588 691.495 22.588C690.549 22.588 689.999 22.214 689.911 20.806H689.867C689.097 22.082 687.755 22.786 685.929 22.786ZM683.751 19.53C683.751 20.828 684.477 21.532 686.105 21.532C688.393 21.532 689.911 20.322 689.911 18.298V16.208C689.581 16.67 688.393 16.934 687.051 17.154C684.873 17.55 683.751 18.1 683.751 19.53ZM701.938 22.5V17.418H695.58V22.5H694.15V11.28H695.58V16.164H701.938V11.28H703.368V22.5H701.938ZM713.797 22.5V17.418H707.439V22.5H706.009V11.28H707.439V16.164H713.797V11.28H715.227V22.5H713.797ZM717.869 22.5V11.28H719.299V15.658H721.587C723.853 15.658 725.195 17 725.195 19.09C725.195 21.158 723.787 22.5 721.565 22.5H717.869ZM719.299 21.246H721.587C722.885 21.246 723.699 20.432 723.699 19.09C723.699 17.748 722.973 16.912 721.565 16.912H719.299V21.246ZM726.625 22.5V11.28H728.055V22.5H726.625ZM729.243 22.5L733.643 16.758L729.595 11.28H731.333L734.501 15.746H734.545L737.691 11.28H739.407L735.381 16.758L739.803 22.5H738.065L734.523 17.726H734.479L730.959 22.5H729.243Z" fill="#1A1A1A"/>
</svg>
