<svg width="60" height="60" viewBox="0 0 60 60" fill="none" xmlns="http://www.w3.org/2000/svg">
<path d="M5.1623 23.1138L5.16224 23.1139C5.05842 23.3423 5.00715 23.5016 4.98004 25.0072C4.95288 26.5159 4.95042 29.3848 4.95042 35.042C4.95042 35.7317 4.9503 36.382 4.95019 36.9952C4.94929 42.0334 4.94883 44.5659 5.01713 45.9053C5.05536 46.6552 5.11529 47.0383 5.21229 47.279C5.29123 47.4749 5.39582 47.577 5.52087 47.699C5.55139 47.7288 5.58313 47.7598 5.61601 47.7936C5.80551 47.993 6.10531 48.2336 6.29009 48.3264C6.33465 48.3514 6.39452 48.3709 6.50438 48.3875C6.61515 48.4042 6.78048 48.4185 7.03829 48.4308C7.55425 48.4553 8.4466 48.4723 10.0269 48.484C13.1878 48.5075 19.1047 48.51 30.2764 48.51C41.4481 48.51 47.365 48.5075 50.526 48.484C52.1062 48.4723 52.9986 48.4553 53.5145 48.4308C53.7724 48.4185 53.9377 48.4042 54.0485 48.3875C54.1583 48.3709 54.2182 48.3514 54.2627 48.3264C54.4475 48.2336 54.7473 47.993 54.9368 47.7936C54.9697 47.7598 55.0015 47.7288 55.032 47.699C55.157 47.577 55.2616 47.4749 55.3405 47.279C55.4376 47.0383 55.4975 46.6552 55.5357 45.9053C55.604 44.5659 55.6036 42.0334 55.6026 36.9954C55.6025 36.3821 55.6024 35.7318 55.6024 35.042C55.6024 29.3848 55.6 26.5159 55.5728 25.0072C55.5457 23.5024 55.4945 23.3425 55.3908 23.1143C55.3907 23.1142 55.3907 23.114 55.3906 23.1139L55.3451 23.1346C54.9896 22.3348 54.3577 21.851 53.5086 21.7029L5.1623 23.1138ZM5.1623 23.1138C5.35266 22.698 5.59438 22.3773 5.91817 22.1332C6.24159 21.8894 6.64391 21.7242 7.15216 21.6146C7.65369 21.5064 20.3679 17.9528 37.5692 13.1143C40.1364 12.3886 42.0916 11.8479 43.4471 11.4887C44.1248 11.3091 44.653 11.1747 45.0328 11.0852C45.2227 11.0405 45.376 11.0069 45.4925 10.9844C45.607 10.9624 45.6899 10.9503 45.7375 10.9501C46.4154 10.94 47.23 11.3427 47.654 11.9079C47.9083 12.2435 48.0583 12.6792 48.3933 14.0291L48.3934 14.0292L48.7973 15.6737L49.3153 15.601L49.3159 15.6009C50.0046 15.5118 50.526 15.5158 50.959 15.6395C51.3937 15.7637 51.7348 16.0072 52.0654 16.3879L52.0658 16.3884M5.1623 23.1138L52.0658 16.3884M52.0658 16.3884C52.2822 16.645 52.4144 16.8588 52.5227 17.2655M52.0658 16.3884L52.5227 17.2655M52.5227 17.2655C52.6299 17.6682 52.7142 18.2619 52.8375 19.2779L52.5227 17.2655ZM45.7407 12.6298L45.7407 12.6299H45.7382C45.7325 12.6299 45.7182 12.6314 45.6926 12.6358C45.6837 12.6373 45.6738 12.6391 45.6629 12.6412C45.6439 12.6449 45.6219 12.6494 45.5969 12.6547C45.5185 12.6716 45.4124 12.6965 45.2817 12.7287C45.0203 12.7931 44.6618 12.8862 44.2318 13.0009C43.3719 13.2304 42.2269 13.5463 41.0027 13.8918C38.5639 14.583 32.7781 16.2121 28.1474 17.5055C25.8321 18.1571 23.7316 18.752 22.2125 19.1864C21.4529 19.4036 20.8387 19.5807 20.4157 19.7047C20.3804 19.715 20.3464 19.725 20.3138 19.7346C20.4845 19.7115 20.6912 19.6833 20.9303 19.6505C21.6804 19.5474 22.7499 19.3984 24.0324 19.2187C26.5975 18.8593 30.0146 18.3767 33.4326 17.8917C36.8506 17.4066 40.2696 16.9191 42.8383 16.5498C44.1227 16.3652 45.1945 16.21 45.9474 16.0996C46.3238 16.0443 46.6204 16.0002 46.8239 15.9692C46.8665 15.9627 46.905 15.9568 46.9392 15.9515C46.9869 15.9441 47.0264 15.9378 47.0575 15.9327C47.0738 15.9301 47.0876 15.9277 47.099 15.9258C47.0964 15.9062 47.0921 15.8797 47.0861 15.8466C47.0721 15.7693 47.0494 15.6592 47.0198 15.5242C46.9607 15.2545 46.8744 14.8872 46.7758 14.4876C46.6525 13.9995 46.5443 13.6184 46.4499 13.3402C46.4027 13.201 46.3592 13.0883 46.3193 13.001C46.2795 12.9141 46.2446 12.8555 46.2151 12.8214C46.0857 12.6926 45.9217 12.6208 45.7407 12.6298ZM51.4058 21.3367L51.4057 21.3364C51.3758 21.1669 51.267 20.2863 51.1585 19.3892C51.0993 18.94 51.0425 18.5131 50.9969 18.1863C50.9741 18.0228 50.9541 17.8846 50.9379 17.7812C50.9217 17.6771 50.91 17.6124 50.9037 17.591C50.8926 17.5584 50.8556 17.5064 50.7971 17.4503C50.7397 17.3952 50.6672 17.3416 50.5933 17.3046C50.516 17.2659 50.4316 17.2298 50.3588 17.2047C50.3223 17.1922 50.2895 17.1827 50.2624 17.1769C50.2339 17.1709 50.2163 17.17 50.2081 17.1712C50.139 17.181 43.0598 18.198 34.4798 19.4322L19.5663 21.5843L35.1934 21.5937L51.4543 21.6035L51.4058 21.3367ZM53.6898 46.6481L53.6897 46.6481L53.6912 46.6467L53.9227 46.4245V35.1111C53.9223 34.6404 53.9219 34.1888 53.9216 33.7557C53.9178 28.6697 53.9158 26.1251 53.8647 24.8274C53.8369 24.1209 53.7945 23.7916 53.7327 23.6236C53.7029 23.5425 53.6699 23.5028 53.6341 23.4758C53.6153 23.4616 53.5944 23.4499 53.5695 23.4375C53.5608 23.4331 53.5509 23.4284 53.5404 23.4233C53.5242 23.4155 53.5064 23.4069 53.4891 23.398L53.4851 23.3973C53.4788 23.3962 53.4694 23.3951 53.4565 23.3938C53.4309 23.3914 53.3943 23.3889 53.3466 23.3865C53.2514 23.3816 53.1144 23.3769 52.938 23.3723C52.5853 23.3631 52.0768 23.3546 51.4345 23.3467C50.15 23.331 48.3313 23.3179 46.1564 23.3074C41.8066 23.2864 36.0326 23.2759 30.2591 23.2759C24.4857 23.2759 18.7129 23.2864 14.3656 23.3074C12.192 23.3179 10.3748 23.331 9.0921 23.3467C8.45074 23.3546 7.94321 23.3631 7.59164 23.3723C7.41579 23.3769 7.27931 23.3816 7.18472 23.3865C7.13734 23.3889 7.10103 23.3914 7.07574 23.3938C7.06301 23.3951 7.05381 23.3962 7.04769 23.3972L7.04467 23.3978C7.0278 23.4073 7.01255 23.4154 6.99853 23.4228C6.96244 23.442 6.93441 23.457 6.90751 23.4795C6.87301 23.5084 6.84096 23.5507 6.81214 23.635C6.75278 23.8087 6.71226 24.1438 6.68567 24.8532C6.63699 26.1517 6.63507 28.6806 6.63127 33.7051C6.63093 34.1536 6.63057 34.622 6.63017 35.1111V46.4245L6.86163 46.6467L6.86166 46.6466L6.86307 46.6481L7.08528 46.8796H30.2764H53.4676L53.6898 46.6481ZM7.04248 23.3982C7.04195 23.3984 7.04202 23.3984 7.04255 23.3982L7.04248 23.3982Z" fill="#840D06" stroke="#840D06" stroke-width="0.1"/>
<path d="M10.9741 24.9316C10.6779 25.0994 10.5397 25.3265 10.5298 25.6326C10.5298 26.3237 9.93737 27.0247 9.26598 27.1333C8.67357 27.2419 8.55509 27.2814 8.35762 27.5085C8.16016 27.706 8.16016 27.8936 8.16016 35.1012V42.4964L8.40699 42.7334C8.54522 42.8815 8.76244 42.9802 8.92041 42.9802C9.34497 42.9901 9.97687 43.3159 10.2237 43.6615C10.3422 43.8293 10.4804 44.1946 10.5199 44.481C10.668 45.4091 10.2632 45.3498 16.4736 45.3498H21.8941L22.1311 45.103C22.526 44.7081 22.4273 44.1551 21.9139 43.8886C21.7559 43.7997 20.3539 43.7701 16.8587 43.7701H12.0207L11.7837 43.2567C11.4776 42.5951 10.9148 42.0324 10.2533 41.7263L9.73991 41.4893V35.0913V28.6933L10.1842 28.5156C10.7766 28.2984 11.5171 27.5579 11.8133 26.9062L12.0503 26.3928H16.9673H21.8941L22.1311 26.146C22.526 25.7511 22.4273 25.1981 21.9139 24.9316C21.6078 24.7637 11.2604 24.7736 10.9741 24.9316Z" fill="#840D06"/>
<path d="M24.7653 32.1163L24.7654 32.116C25.7901 30.1855 27.7067 28.8425 29.8735 28.5328C30.562 28.4323 31.7273 28.5119 32.4436 28.6899L32.445 28.6903C34.311 29.1648 35.8933 30.4166 36.7992 32.1156L36.7995 32.1162C38.8685 36.0232 36.7783 40.799 32.4929 41.9577V41.9577L32.4919 41.9579C31.9383 42.1051 31.7059 42.1313 30.815 42.1314C29.958 42.1378 29.6808 42.1121 29.1769 41.984L29.1768 41.984C24.8327 40.8781 22.6766 36.063 24.7653 32.1163ZM32.0809 30.165L32.0793 30.1645C31.4605 30.0018 30.4606 29.9601 29.8991 30.0668C28.5753 30.3228 27.4211 31.0099 26.6316 32.0072C24.2863 34.9908 25.6563 39.3321 29.3053 40.449L29.306 40.4492C29.6948 40.5694 30.2326 40.6332 30.7824 40.6332C31.3323 40.6332 31.87 40.5694 32.2589 40.4492L32.2596 40.449C34.5424 39.7505 36.1007 37.6686 36.1008 35.3247C36.0946 32.9188 34.4254 30.765 32.0809 30.165Z" fill="#840D06" stroke="#840D06" stroke-width="0.5"/>
<path d="M38.62 24.9316C38.1164 25.2179 38.0276 25.7609 38.4225 26.146L38.6595 26.3928H43.5764H48.4934L48.7304 26.9062C49.0266 27.548 49.777 28.2984 50.3694 28.5156L50.8137 28.6933V35.0913V41.4893L50.3002 41.7263C49.6387 42.0324 49.0759 42.5951 48.7699 43.2468L48.5329 43.7701H43.6949C40.1997 43.7701 38.7977 43.7997 38.6397 43.8886C38.1263 44.1551 38.0276 44.7081 38.4225 45.103L38.6595 45.3498H44.08C50.2904 45.3498 49.8856 45.4091 50.0337 44.481C50.0732 44.1946 50.2114 43.8293 50.3299 43.6615C50.5767 43.3159 51.2086 42.9901 51.6332 42.9802C51.7911 42.9802 52.0083 42.8815 52.1466 42.7334L52.3934 42.4964V35.1012C52.3934 27.8936 52.3934 27.706 52.1959 27.5085C51.9985 27.2814 51.88 27.2419 51.2876 27.1333C50.6162 27.0247 50.0238 26.3237 50.0238 25.6326C50.0139 25.3166 49.8757 25.0895 49.5597 24.9316C49.2537 24.7637 38.9063 24.7736 38.62 24.9316Z" fill="#840D06"/>
<path d="M13.8871 32.8007C13.1367 33.0475 12.6332 33.4918 12.3172 34.1928C11.942 35.0123 12.1296 36.049 12.7615 36.7007C13.3046 37.2635 13.6403 37.4017 14.4795 37.4017C15.3188 37.4017 15.6545 37.2635 16.1975 36.7007C17.2737 35.5949 16.938 33.709 15.5261 32.9883C15.1015 32.7711 14.2623 32.6723 13.8871 32.8007ZM14.8053 34.4101C15.3188 34.6766 15.4175 35.2295 15.0226 35.6245C14.5486 36.1083 13.6896 35.7726 13.6896 35.1111C13.6995 34.805 13.8377 34.5779 14.1339 34.4101C14.3907 34.262 14.5388 34.262 14.8053 34.4101Z" fill="#840D06"/>
<path d="M45.4809 32.8007C44.7305 33.0475 44.2269 33.4918 43.911 34.1928C43.5358 35.0123 43.7234 36.049 44.3553 36.7007C44.8983 37.2635 45.234 37.4017 46.0733 37.4017C46.9125 37.4017 47.2482 37.2635 47.7912 36.7007C48.8674 35.5949 48.5318 33.709 47.1199 32.9883C46.6953 32.7711 45.8561 32.6723 45.4809 32.8007ZM46.3991 34.4101C46.9125 34.6766 47.0112 35.2295 46.6163 35.6245C46.1424 36.1083 45.2834 35.7726 45.2834 35.1111C45.2933 34.805 45.4315 34.5779 45.7277 34.4101C45.9844 34.262 46.1325 34.262 46.3991 34.4101Z" fill="#840D06"/>
</svg>
