<svg width="60" height="60" viewBox="0 0 60 60" fill="none" xmlns="http://www.w3.org/2000/svg">
<path d="M15.4839 11.1386C14.5124 11.3977 13.6981 12.0732 13.2263 13.0077C12.9394 13.5813 12.9394 13.5813 12.5323 17.3749L12.1992 20.4745L10.4875 20.53C8.59997 20.5855 8.28538 20.6595 7.48041 21.2147C6.916 21.6033 6.57366 22.0197 6.24982 22.7229L6 23.2503V34.5476V45.8358L6.3516 46.539C6.75871 47.3624 7.20283 47.7973 8.08183 48.2229L8.68324 48.5098H26.1706C40.0309 48.5098 43.7412 48.482 44.0466 48.3895C44.9718 48.1119 45.9341 47.2052 46.3134 46.2429C46.4985 45.7895 46.517 45.5212 46.554 43.6892L46.591 41.6444L47.7106 41.6536C48.6913 41.6629 48.9042 41.6351 49.3668 41.4501C50.3476 41.0522 51.2266 40.0437 51.4671 39.0259C51.6337 38.3412 53.3454 17.4859 53.2806 16.9123C53.1696 15.8297 52.3739 14.6824 51.4024 14.192C51.1525 14.0625 50.6806 13.9144 50.3568 13.8589C49.7739 13.7571 16.7052 10.9814 16.2333 10.9999C16.1038 10.9999 15.7615 11.0646 15.4839 11.1386ZM33.0638 14.229C42.2978 14.997 50.0237 15.6632 50.2273 15.7187C50.7084 15.8575 51.3468 16.4866 51.4301 16.9123C51.4579 17.0973 51.0878 22.0474 50.5974 27.9136C49.6536 39.2202 49.6814 38.9704 49.191 39.4145C48.7931 39.7753 48.3397 39.8771 47.433 39.8124L46.5818 39.7476L46.554 31.5498L46.5262 23.3428L46.3042 22.7876C45.9989 22.0197 45.0736 21.0944 44.3056 20.7891L43.7505 20.567L28.9279 20.5393L14.096 20.5208V20.3079C14.096 19.9101 14.7344 14.1735 14.7992 13.9977C14.9842 13.4795 15.7337 12.8596 16.1778 12.8411C16.2333 12.8411 23.8297 13.461 33.0638 14.229ZM43.4729 22.473C43.9448 22.6026 44.4907 23.1485 44.6202 23.6204C44.6757 23.8239 44.722 24.4346 44.722 24.9805V25.9798H26.2631H7.80425V24.9342C7.80425 23.6851 7.88752 23.3335 8.30389 22.9357C8.91456 22.3435 7.71172 22.3805 26.2169 22.3713C38.2637 22.3713 43.2046 22.399 43.4729 22.473ZM44.7035 29.7918L44.722 31.7164H26.2631H7.80425V29.7733V27.8303L26.2446 27.8488L44.6757 27.8765L44.7035 29.7918ZM44.722 39.322C44.722 43.06 44.685 45.2066 44.6202 45.4379C44.574 45.6322 44.3982 45.9283 44.2501 46.1041C43.6765 46.761 45.0828 46.7148 26.0688 46.687L8.95157 46.6593L8.61848 46.4372C8.44268 46.3169 8.19286 46.0671 8.07258 45.8913L7.85051 45.5582L7.82276 39.5625L7.80425 33.5669H26.2631H44.722V39.322Z" fill="#840D06"/>
<path d="M31.2772 36.6017L31.0273 36.8608V40.1269V43.3931L31.2957 43.6614L31.564 43.9297H36.3476C39.4472 43.9297 41.1867 43.8927 41.3069 43.8372C41.7326 43.6059 41.7603 43.3931 41.7603 40.1362C41.7603 36.8793 41.7326 36.6665 41.3069 36.4352C41.1867 36.3797 39.4379 36.3426 36.3291 36.3426H31.527L31.2772 36.6017ZM39.9098 40.1362V42.0792H36.3938H32.8779V40.1362V38.1932H36.3938H39.9098V40.1362Z" fill="#840D06"/>
</svg>
