<svg width="105" height="103" viewBox="0 0 105 103" fill="none" xmlns="http://www.w3.org/2000/svg">
<g clip-path="url(#clip0_3043_38031)">
<path d="M19.8794 22.9914C19.7565 23.0344 19.6159 23.1186 19.4746 23.2206C19.3312 23.3241 19.1788 23.4521 19.0317 23.5901C18.7396 23.8639 18.4562 24.1881 18.3023 24.4519C18.2735 24.5013 18.2515 24.5682 18.2331 24.6388C18.2138 24.7126 18.1953 24.8032 18.1776 24.9074C18.1422 25.1162 18.1084 25.388 18.0775 25.7076C18.0156 26.3474 17.9642 27.1864 17.9333 28.1114L17.9333 28.1115L17.8353 31.1495L13.9775 31.2682C13.9773 31.2682 13.9772 31.2682 13.9771 31.2682M19.8794 22.9914L9.59301 32.259C9.73656 31.8898 9.88012 31.5822 9.92113 31.5617C9.96215 31.5412 11.7873 31.4797 13.9817 31.4181L13.9771 31.2682M19.8794 22.9914C19.9019 22.9836 19.9252 22.9815 19.9295 22.981C19.9414 22.9797 19.9558 22.9786 19.9715 22.9775C20.0033 22.9755 20.0467 22.9735 20.1007 22.9716C20.2089 22.9677 20.364 22.9639 20.5631 22.9601C20.9615 22.9525 21.5385 22.945 22.2743 22.9378C23.7462 22.9234 25.8549 22.9099 28.4441 22.8984C33.6226 22.8753 40.7236 22.8599 48.4962 22.8599M19.8794 22.9914L48.4963 23.0099M13.9771 31.2682C12.8799 31.299 11.8748 31.3297 11.1387 31.3554C10.7707 31.3682 10.4695 31.3798 10.2575 31.3894C10.1516 31.3942 10.0673 31.3986 10.0077 31.4025C9.97808 31.4044 9.95334 31.4063 9.93467 31.4081C9.92554 31.409 9.91611 31.4101 9.90756 31.4114C9.90339 31.412 9.89762 31.413 9.89131 31.4144L9.89097 31.4145C9.88731 31.4153 9.87147 31.4188 9.85405 31.4275C9.82905 31.44 9.81214 31.4566 9.80419 31.4648C9.79463 31.4748 9.78656 31.485 9.78016 31.4937C9.7673 31.5113 9.75461 31.5318 9.74258 31.5528C9.7182 31.5954 9.68997 31.6515 9.65974 31.7159C9.59923 31.8448 9.5265 32.0163 9.45419 32.2021M13.9771 31.2682L9.45419 32.2021M9.45419 32.2021C9.25015 32.6758 9.20522 33.1247 9.34089 33.5202C9.47709 33.9172 9.78684 34.2358 10.2427 34.4639C10.5951 34.6456 11.0036 34.7316 12.483 34.7724C13.9703 34.8135 16.5676 34.8084 21.3241 34.7879H21.3244L31.6603 34.7263L31.7288 34.7259L31.7733 34.674L32.2655 34.0997L32.2657 34.0995C32.5762 33.7355 32.7561 33.3659 32.7706 32.9798C32.7852 32.5927 32.6325 32.2154 32.3312 31.8383C32.3309 31.8379 32.3306 31.8375 32.3303 31.8371L31.9219 31.3062L31.8768 31.2476H31.803H26.5735H21.5145V28.8342V26.4207H48.5373H75.5599L75.5192 47.6394V47.6395L75.4581 68.8802L63.651 68.941C58.9236 68.9615 55.9362 68.9615 54.1206 68.9308C53.2121 68.9154 52.6004 68.8924 52.2118 68.8607C52.0166 68.8449 51.8832 68.8272 51.7985 68.8087C51.7726 68.8031 51.7537 68.7978 51.7403 68.7935C50.7966 66.057 49.9214 64.7225 48.2178 63.4344M9.45419 32.2021L104.442 70.9162M48.2178 63.4344C45.5043 61.3681 41.628 61.0572 38.5025 62.6614C36.5968 63.6249 34.8712 65.7296 34.1016 67.9551L34.1014 67.9558L33.787 68.8805L27.6389 68.941L27.6384 68.941L21.5145 68.981V64.4152V59.8484H24.133C25.3801 59.8484 26.0938 59.8385 26.5415 59.7805C26.7675 59.7513 26.9354 59.7088 27.0745 59.6441C27.2157 59.5784 27.3183 59.4939 27.4178 59.3943C28.0936 58.7186 28.089 57.5382 27.3993 56.8259C27.3473 56.7712 27.2892 56.7149 27.2057 56.6654C27.1224 56.6161 27.0214 56.5778 26.8859 56.5466C26.6196 56.4853 26.196 56.4467 25.461 56.4211C23.987 56.3697 21.2116 56.3697 15.8153 56.3697H15.8069H4.71215H4.64316L4.59826 56.4221L4.10607 56.9963L4.10583 56.9966C3.79536 57.3606 3.61546 57.7302 3.60095 58.1162C3.5864 58.5033 3.73901 58.8807 4.04039 59.2578C4.04069 59.2582 4.041 59.2585 4.04131 59.2589L4.4497 59.7899L4.49473 59.8484H4.56859H11.3362H17.9332V65.5226C17.9332 68.2271 17.9383 69.6942 17.9899 70.5408C18.0157 70.9638 18.0536 71.2424 18.112 71.447C18.1724 71.6581 18.2537 71.7874 18.356 71.9126L18.7449 72.4038L18.7892 72.4597L18.8605 72.4607L26.4074 72.5632L33.8237 72.6643L34.038 73.3785C34.0381 73.3787 34.0381 73.3789 34.0382 73.3791C34.9985 76.6351 37.8552 79.1342 41.3326 79.7591C43.4353 80.1461 45.6563 79.6224 47.4975 78.5041C49.3387 77.3859 50.812 75.6659 51.4087 73.6452L51.4088 73.6449L51.7259 72.5633H66.5022H81.2544L81.4918 73.4763C82.0785 75.7396 84.0196 77.9471 86.3735 79.0097C91.2947 81.2822 97.0076 78.8204 98.8 73.6932L98.8002 73.6927L99.1569 72.6602L100.984 72.563L100.984 72.563C102.051 72.5015 102.767 72.4036 103.306 72.1717C103.857 71.935 104.211 71.5648 104.569 70.9961M48.2178 63.4344C48.2179 63.4344 48.218 63.4345 48.2181 63.4346L48.1272 63.5539L48.2177 63.4342C48.2177 63.4343 48.2178 63.4343 48.2178 63.4344ZM104.569 70.9961L104.442 70.9162M104.569 70.9961C104.569 70.9962 104.568 70.9963 104.568 70.9964L104.442 70.9162M104.569 70.9961C104.67 70.8352 104.753 70.6837 104.814 70.455C104.874 70.2309 104.912 69.9379 104.935 69.4936C104.981 68.6058 104.971 67.077 104.94 64.2085L104.94 64.1492C104.909 61.218 104.894 59.7075 104.822 58.7819C104.786 58.3138 104.735 57.9894 104.658 57.703C104.582 57.417 104.482 57.1738 104.354 56.8713L104.354 56.8713C104.207 56.5246 103.556 55.2858 102.636 53.5799C101.712 51.8695 100.512 49.6797 99.2613 47.4235L99.2612 47.4234C96.8635 43.1096 95.5057 40.7224 94.5568 39.3636C94.0818 38.6834 93.7029 38.2513 93.3403 37.9629C92.9742 37.6717 92.6311 37.5321 92.2389 37.426M104.442 70.9162C104.831 70.301 104.852 69.9523 104.79 64.2101L104.79 64.165C104.729 58.2622 104.727 58.1368 104.216 56.9299C103.929 56.2531 101.632 52.008 99.1301 47.4963C94.3313 38.8625 93.7161 37.9806 92.1985 37.5705M92.2389 37.426C92.2394 37.4262 92.24 37.4263 92.2405 37.4265L92.1985 37.5705M92.2389 37.426C92.2385 37.4259 92.2381 37.4258 92.2376 37.4257L92.1985 37.5705M92.2389 37.426C92.0974 37.3851 91.8202 37.3526 91.4426 37.3251C91.0574 37.297 90.552 37.2732 89.9448 37.2539C88.7301 37.2154 87.1031 37.1949 85.2053 37.1949H79.1605M92.1985 37.5705C91.7063 37.4269 88.9993 37.3449 85.2053 37.3449H79.012M79.012 37.3449L79.1619 37.3434L79.1605 37.1949M79.012 37.3449L78.9504 31.131L78.9501 31.0986C78.8889 25.0194 78.8881 24.9365 78.4172 24.2609C78.2872 24.0794 78.2126 23.9236 78.1094 23.7901C77.431 22.9126 75.5145 22.9921 48.4963 23.0099M79.012 37.3449V37.1949H79.1605M79.1605 37.1949L79.1004 31.1295L79.1 31.0829C79.0695 28.0616 79.054 26.5175 78.9872 25.6465C78.9536 25.2081 78.9063 24.9286 78.8329 24.7123C78.7583 24.4924 78.6591 24.3456 78.5403 24.1751L78.5392 24.1736C78.4812 24.0927 78.4347 24.0168 78.389 23.9421C78.3443 23.8688 78.2986 23.7934 78.2465 23.7227C78.137 23.5745 78.0001 23.4484 77.7647 23.3455C77.5358 23.2454 77.2169 23.1685 76.7452 23.1071C76.272 23.0456 75.636 22.9986 74.7679 22.9626C71.7885 22.8392 66.0301 22.8445 54.6103 22.8549C52.73 22.8566 50.6963 22.8585 48.4962 22.8599M48.4962 22.8599C48.4963 22.8599 48.4963 22.8599 48.4963 22.8599V23.0099M48.4962 22.8599L48.4963 23.0099M75.7102 26.2707L75.7099 26.4207L75.5602 26.2707H75.7102ZM91.511 41.1142L91.509 41.1118C91.4485 41.0392 91.3888 40.9866 91.2474 40.9423C91.0945 40.8944 90.8501 40.8578 90.4208 40.8323C89.5651 40.7814 88.0278 40.7762 85.1438 40.7762H79.1414V54.8791V68.9943L80.1319 68.9412L80.132 68.9412C80.4266 68.9257 80.6392 68.9144 80.8005 68.8938C80.9627 68.8731 81.0537 68.845 81.1141 68.8073C81.1693 68.7729 81.2125 68.7221 81.2578 68.6223C81.3055 68.5174 81.3485 68.3751 81.4112 68.1661C82.2877 65.183 84.8505 62.7042 87.8743 61.9117L87.8749 61.9116C92.567 60.7021 97.2787 63.2896 98.862 67.9558C98.862 67.9558 98.862 67.9559 98.862 67.9559L99.1778 68.8847L100.306 68.9412L100.307 68.9412L101.4 68.995V64.3537C101.4 62.5494 101.38 61.2967 101.331 60.3986C101.283 59.5 101.206 58.9655 101.099 58.5928C101.085 58.5453 101.039 58.4375 100.959 58.2666C100.88 58.0996 100.773 57.8816 100.641 57.6194C100.376 57.0951 100.012 56.3972 99.5811 55.5834C98.7192 53.9561 97.5897 51.8682 96.4479 49.7858C95.3061 47.7034 94.1523 45.627 93.2418 44.0228C92.7865 43.2206 92.3923 42.537 92.0911 42.03C91.9405 41.7765 91.8135 41.5678 91.714 41.4109C91.6122 41.2504 91.5446 41.1529 91.511 41.1142ZM44.476 65.5027L44.4734 65.5018C43.888 65.3202 43.045 65.1814 42.6174 65.2008L42.6174 65.2009L42.6122 65.2009C41.6822 65.2108 40.689 65.553 39.8205 66.1103C38.9523 66.6674 38.2195 67.4324 37.803 68.275C37.5079 68.8851 37.3462 69.7281 37.3285 70.586C37.3109 71.4438 37.4376 72.2979 37.7037 72.9288C37.9509 73.5018 38.3945 74.117 38.9258 74.6533C39.4573 75.1899 40.0674 75.6382 40.6397 75.8849L40.6402 75.8851C41.2488 76.1501 42.0807 76.267 42.9226 76.2342C43.7643 76.2014 44.5972 76.0199 45.2078 75.7048L45.2079 75.7047C46.4879 75.0447 47.5674 73.8233 48.0054 72.5094C48.2131 71.8862 48.2893 71.1015 48.239 70.3287C48.1886 69.5553 48.0124 68.8081 47.7274 68.2576L47.7273 68.2575C47.4202 67.6631 46.9162 67.0627 46.3305 66.5649C45.7444 66.0668 45.086 65.6797 44.476 65.5027ZM45.2766 75.8381C44.0051 76.4943 41.8518 76.5763 40.5803 76.0226L47.8606 68.1887C48.4553 69.3371 48.5784 71.2648 48.1477 72.5568C47.6965 73.9103 46.5891 75.1613 45.2766 75.8381ZM92.1255 65.5811L92.1249 65.5809C90.0674 64.8018 87.9145 65.2604 86.3566 66.7983L86.3564 66.7985C85.7224 67.4224 85.2902 68.0508 85.0277 68.7418C84.7651 69.4328 84.669 70.1952 84.7193 71.0917C84.9195 74.149 87.17 76.2413 90.2698 76.2213H90.2707C91.0476 76.2213 91.6635 76.1255 92.2282 75.9035C92.7932 75.6815 93.3164 75.3295 93.9028 74.8037C96.8946 72.1111 95.9173 66.9981 92.1255 65.5811Z" fill="#840D06" stroke="#840D06" stroke-width="0.3"/>
<path d="M43.893 52.0023C43.8254 52.0569 43.754 52.1129 43.6542 52.1617C43.5544 52.2106 43.4329 52.2494 43.2633 52.2813C42.9283 52.3443 42.3826 52.3848 41.3991 52.4117C39.4283 52.4656 35.6587 52.4656 28.2 52.4656H28.1931H13.1404H13.0764L13.0322 52.4194L12.5418 51.9086C12.1782 51.5552 11.9906 51.1181 11.9906 50.6749C11.9906 50.2317 12.1782 49.7947 12.5418 49.4413C12.6598 49.3182 12.7682 49.2128 12.9021 49.1312C13.039 49.0477 13.1941 48.9938 13.4022 48.9582C13.8077 48.8889 14.4496 48.8843 15.6218 48.8843H17.9328L17.9328 44.0509L17.9328 44.0503C17.943 41.4738 17.9528 40.1251 18.073 39.3595C18.1337 38.973 18.225 38.7152 18.3723 38.5189C18.5188 38.3238 18.7103 38.2044 18.9302 38.0765L18.9321 38.0754C19.2771 37.8813 19.5962 37.7933 19.9235 37.8564C20.2463 37.9186 20.5492 38.1226 20.8754 38.4487L21.4701 39.0435L21.514 39.0874V39.1495V44.0919V48.8843H32.3152H32.3241C37.6892 48.8843 40.4288 48.8843 41.8927 48.9382C42.6232 48.9652 43.0476 49.0057 43.3251 49.0698C43.6152 49.1369 43.7483 49.2308 43.893 49.3476C44.7272 50.0024 44.7272 51.3474 43.893 52.0023ZM43.893 52.0023C43.8927 52.0025 43.8924 52.0027 43.8921 52.0029L43.7996 51.8849L43.8938 52.0016C43.8935 52.0018 43.8933 52.002 43.893 52.0023Z" fill="#840D06" stroke="#840D06" stroke-width="0.3"/>
<path d="M0.499899 43.411L0.499876 43.4111L0.497256 43.409C0.0851555 43.077 -0.126394 42.5179 -0.148118 41.9884C-0.169692 41.4625 -0.00485604 40.9149 0.401091 40.6275C0.523485 40.5377 0.683499 40.4757 0.926002 40.4294C1.16862 40.3832 1.50524 40.3508 1.98897 40.3276C2.95721 40.2813 4.54037 40.2711 7.19487 40.2711H7.2102C10.2625 40.2711 11.8294 40.2711 12.6906 40.3278C13.1211 40.3561 13.3903 40.3993 13.5852 40.4705C13.7882 40.5447 13.9025 40.6466 14.0244 40.7631C14.6834 41.3775 14.6959 42.4924 14.1205 43.2014C14.1203 43.2017 14.1201 43.2019 14.1199 43.2022L13.7314 43.6929L13.6869 43.7491L13.6153 43.7498L7.38096 43.8113C7.38095 43.8113 7.38093 43.8113 7.38092 43.8113C4.33854 43.842 2.76823 43.8524 1.8929 43.8034C1.45543 43.7788 1.17925 43.739 0.975212 43.6745C0.764491 43.6079 0.637645 43.517 0.499899 43.411Z" fill="#840D06" stroke="#840D06" stroke-width="0.3"/>
</g>
<defs>
<clipPath id="clip0_3043_38031">
<rect width="104.818" height="102.736" fill="white"/>
</clipPath>
</defs>
</svg>
