<svg width="69" height="69" viewBox="0 0 69 69" fill="none" xmlns="http://www.w3.org/2000/svg">
<g clip-path="url(#clip0_3043_38043)">
<path d="M55.1382 40.6442C54.0589 42.3575 49.6272 49.0842 45.4248 55.4258C43.3232 58.5971 41.2785 61.6729 39.738 63.9786C38.9678 65.1315 38.3235 66.092 37.8612 66.7758C37.6301 67.1176 37.4442 67.3906 37.3108 67.584C37.2441 67.6806 37.1902 67.7578 37.1501 67.8139C37.1132 67.8656 37.0814 67.9091 37.0628 67.9292L37.0621 67.9299C35.6013 69.489 33.3986 69.489 31.9378 67.9299L31.9376 67.9296C31.9125 67.9028 31.8724 67.8501 31.8236 67.783C31.7724 67.7129 31.7057 67.6188 31.6247 67.5027C31.4626 67.2703 31.2418 66.9477 30.9707 66.5476C30.4283 65.7474 29.6838 64.636 28.8036 63.3145C27.0432 60.6715 24.7398 57.1876 22.426 53.6718C17.8015 46.645 13.1266 39.4778 12.6715 38.6558L12.6714 38.6558C11.1282 35.867 10.0988 33.1313 9.42192 30.0986L9.42177 30.098L55.0113 40.5642M55.1382 40.6442L55.0113 40.5642M55.1382 40.6442C55.1381 40.6443 55.1381 40.6444 55.138 40.6444L55.0113 40.5642M55.1382 40.6442C58.5461 35.2617 60.2839 29.5987 60.0666 24.588L60.0666 24.5879C59.8906 20.6065 59.1042 17.4454 57.4228 14.1096M55.0113 40.5642C58.4074 35.2005 60.1324 29.5673 59.9167 24.5945C59.7416 20.6324 58.9599 17.4923 57.2888 14.1771M57.4228 14.1096C57.4228 14.1096 57.4228 14.1097 57.4228 14.1097L57.2888 14.1771M57.4228 14.1096C56.0951 11.4678 54.6437 9.44665 52.5838 7.38665L52.5836 7.38647C48.7206 3.53708 43.8809 1.05611 38.4994 0.188576L38.4989 0.188499C37.85 0.0860291 36.6569 -0.00519562 35.4989 -0.0574493C34.3436 -0.109581 33.2048 -0.123795 32.6662 -0.0686951C32.6659 -0.0686646 32.6656 -0.068634 32.6653 -0.0686035L32.6806 0.0806122C26.2119 0.687057 20.8751 3.13979 16.5222 7.49272C10.4982 13.5167 7.84331 22.1687 9.56831 30.066C10.2421 33.0847 11.2664 35.807 12.8027 38.5832C13.7056 40.2138 31.4812 67.2208 32.0472 67.8273L38.4755 0.336662C43.8257 1.19917 48.6369 3.66537 52.4777 7.49272C54.5261 9.54116 55.9681 11.5492 57.2888 14.1771M57.4228 14.1096L57.2888 14.1771M37.9823 3.46343L37.9817 3.46334C35.6508 3.11504 33.8721 3.10158 31.4861 3.39647L31.4859 3.3965C24.2468 4.27964 17.3781 9.30061 14.3406 15.9376L14.3405 15.9378C12.1835 20.627 11.6633 25.2288 12.7465 29.8158C13.4433 32.7638 14.4746 35.2293 16.2332 38.1692L16.2333 38.1694C17.0664 39.567 21.6153 46.493 25.9831 53.0751C28.1662 56.3649 30.3029 59.567 31.9055 61.9465C32.7068 63.1363 33.3744 64.1201 33.8474 64.8062C34.084 65.1494 34.2714 65.4175 34.4024 65.5994C34.4398 65.6514 34.4724 65.696 34.5 65.733C34.5275 65.696 34.5601 65.6514 34.5975 65.5994C34.7285 65.4175 34.9159 65.1494 35.1525 64.8062C35.6255 64.1201 36.2931 63.1363 37.0944 61.9465C38.697 59.567 40.8337 56.3649 43.0168 53.0751C47.3846 46.493 51.9335 39.567 52.7666 38.1694L52.7669 38.169C54.6457 35.042 55.7442 32.2815 56.4143 29.0784L56.4144 29.0778C56.7082 27.7024 56.7615 27.0529 56.7615 25.4031C56.7615 21.908 56.16 19.207 54.6593 15.9377L54.6593 15.9376C51.6887 9.44785 45.0746 4.49381 37.9823 3.46343ZM54.7957 15.8751C56.305 19.1634 56.9115 21.8857 56.9115 25.4031C56.9115 27.0607 56.8576 27.721 56.5611 29.1091C55.8873 32.33 54.7822 35.1062 52.8955 38.2462C51.2244 41.0494 34.6886 65.9675 34.5 65.9675C34.3113 65.9675 17.7755 41.0494 16.1044 38.2462L54.7957 15.8751Z" fill="#840D06" stroke="#840D06" stroke-width="0.3"/>
<path d="M32.1824 12.0485L32.1825 12.0484C34.229 11.6801 36.7883 11.8707 38.7663 12.5391L38.7668 12.5393C43.4261 14.1333 46.8595 18.0301 47.854 22.8796C48.5494 26.2473 47.8408 29.9804 45.9323 32.8841L45.9322 32.8843C43.9838 35.8409 41.2437 37.7888 37.6395 38.7817L37.639 38.7818C36.9978 38.9561 35.7398 39.0398 34.5001 39.0398C33.2604 39.0398 32.0024 38.9561 31.3611 38.7818L31.3606 38.7817C27.7565 37.7888 25.0164 35.8409 23.068 32.8843L23.0677 32.8838C20.6553 29.1902 20.2053 24.3399 21.9231 20.2908L21.9232 20.2906C23.7755 15.946 27.5767 12.8797 32.1824 12.0485ZM37.1943 35.4607L37.1944 35.4607C40.1056 34.6232 42.4969 32.6299 43.7986 29.9469C45.7643 25.8693 44.8754 21.1285 41.5397 17.9788C39.9324 16.4645 38.021 15.5615 35.7873 15.2557C35.1886 15.1749 34.8064 15.1358 34.4232 15.1374C34.04 15.139 33.651 15.1815 33.0389 15.269L33.0388 15.269C28.6437 15.8931 25.0955 19.3732 24.3248 23.7982L24.3248 23.7984C23.4222 28.9352 26.661 33.9851 31.8057 35.4607L31.8059 35.4607C32.5359 35.6712 33.5147 35.7783 34.5001 35.7783C35.4855 35.7783 36.4643 35.6712 37.1943 35.4607Z" fill="#840D06" stroke="#840D06" stroke-width="0.3"/>
</g>
<defs>
<clipPath id="clip0_3043_38043">
<rect width="69" height="69" fill="white"/>
</clipPath>
</defs>
</svg>
