<svg width="28" height="28" viewBox="0 0 28 28" fill="none" xmlns="http://www.w3.org/2000/svg">
<path d="M17.125 27.4897H9.875C7.37375 27.4897 5.34375 25.4597 5.34375 22.9584V16.8926C5.34375 16.6509 5.44038 16.4213 5.60955 16.2522C5.77871 16.083 6.00833 15.9863 6.25 15.9863L10.9504 16.0105C11.9654 16.0105 12.9804 16.2522 13.8988 16.7113C14.5754 17.0497 15.3004 17.2188 16.0617 17.2188H20.75C21.2454 17.2188 21.6562 17.6297 21.6562 18.1251V22.9584C21.6562 25.4597 19.6263 27.4897 17.125 27.4897ZM7.15625 17.7988V22.9584C7.15625 24.4567 8.37667 25.6772 9.875 25.6772H17.125C18.6233 25.6772 19.8438 24.4567 19.8438 22.9584V19.0313H16.0617C15.0225 19.0313 14.0196 18.8017 13.0891 18.3305C12.4125 17.9922 11.6875 17.823 10.9504 17.823L7.15625 17.7988Z" fill="#292D32"/>
<path d="M20.75 19.0311H16.0617C15.0225 19.0311 14.0196 18.8015 13.0891 18.3303C12.4125 17.9919 11.6875 17.8228 10.9504 17.8228L6.25 17.7986C5.75458 17.7986 5.34375 17.3877 5.34375 16.8923V13.0861C5.34375 12.2886 5.75458 11.2978 6.3225 10.7298L8.88416 8.16816C8.93249 8.11983 8.96875 8.03525 8.96875 7.96275V6.0415C8.96875 5.54609 9.37958 5.13525 9.875 5.13525H17.125C17.6204 5.13525 18.0312 5.54609 18.0312 6.0415V7.96275C18.0312 8.03525 18.0675 8.11983 18.1158 8.16816L20.6775 10.7298C21.2454 11.2978 21.6562 12.2886 21.6562 13.0861V18.1248C21.6562 18.6203 21.2454 19.0311 20.75 19.0311ZM7.15625 15.9861L10.9504 16.0103C11.9654 16.0103 12.9804 16.2519 13.8988 16.7111C14.5754 17.0494 15.3004 17.2186 16.0617 17.2186H19.8438V13.0861C19.8438 12.7719 19.6263 12.2403 19.3967 12.0107L16.835 9.44901C16.4483 9.06235 16.2188 8.51858 16.2188 7.96275V6.94775H10.7812V7.96275C10.7812 8.51858 10.5517 9.06235 10.165 9.44901L7.60333 12.0107C7.37374 12.2403 7.15625 12.7719 7.15625 13.0861V15.9861Z" fill="#292D32"/>
<path d="M20.75 20.2396C20.2546 20.2396 19.8438 19.8288 19.8438 19.3333V18.125C19.8438 17.6296 20.2546 17.2188 20.75 17.2188C21.2454 17.2188 21.6562 17.6296 21.6562 18.125V19.3333C21.6562 19.8288 21.2454 20.2396 20.75 20.2396Z" fill="#292D32"/>
<path d="M6.25 19.0072C5.75458 19.0072 5.34375 18.5963 5.34375 18.1009V16.8926C5.34375 16.3972 5.75458 15.9863 6.25 15.9863C6.74542 15.9863 7.15625 16.3972 7.15625 16.8926V18.1009C7.15625 18.5963 6.74542 19.0072 6.25 19.0072Z" fill="#292D32"/>
<path d="M16.5214 6.94775H10.4797C8.9814 6.94775 7.76099 5.72734 7.76099 4.229C7.76099 2.73067 8.9814 1.51025 10.4797 1.51025H16.5214C18.0197 1.51025 19.2402 2.73067 19.2402 4.229C19.2402 5.72734 18.0197 6.94775 16.5214 6.94775ZM10.4797 3.32275C9.98432 3.32275 9.57349 3.73359 9.57349 4.229C9.57349 4.72442 9.98432 5.13525 10.4797 5.13525H16.5214C17.0168 5.13525 17.4277 4.72442 17.4277 4.229C17.4277 3.73359 17.0168 3.32275 16.5214 3.32275H10.4797Z" fill="#292D32"/>
</svg>
