<svg width="14" height="15" viewBox="0 0 14 15" fill="none" xmlns="http://www.w3.org/2000/svg">
<path d="M7.47944 4.77064C6.70975 5.65606 6.50468 6.35617 6.50468 6.35617C6.50468 6.35617 3.56038 5.19138 3.43756 3.6695C3.41922 1.33936 7.6734 0.500122 7.6734 0.500122C7.6734 0.500122 7.53113 1.38554 8.75375 2.86575C8.97105 3.14343 9.49288 3.7951 9.49288 3.7951C9.49288 3.7951 8.35307 3.83791 7.47944 4.77064Z" fill="#840D06"/>
<path d="M4.00573 6.21825C4.60148 7.23265 5.19556 7.64269 5.19556 7.64269C5.19556 7.64269 3.20157 10.1277 1.73276 9.7802C-0.4613 9.08516 0.0522023 4.72452 0.0522023 4.72452C0.0522023 4.72452 0.841351 5.13288 2.60582 4.40573C2.93315 4.28125 3.70396 3.97766 3.70396 3.97766C3.70396 3.97766 3.39608 5.08951 4.00573 6.21881V6.21825Z" fill="#840D06"/>
<path d="M4.30274 10.0214C5.43923 9.76232 6.00997 9.31848 6.00997 9.31848C6.00997 9.31848 7.71887 12.0119 6.93583 13.3192C5.6015 15.2168 1.67188 13.3631 1.67188 13.3631C1.67188 13.3631 2.30041 12.7306 2.16815 10.8054C2.15314 10.4512 2.10813 9.61306 2.10813 9.61306C2.10813 9.61306 3.05511 10.2568 4.3033 10.022L4.30274 10.0214Z" fill="#840D06"/>
<path d="M7.96879 10.9202C8.08327 9.74525 7.84542 9.05697 7.84542 9.05697C7.84542 9.05697 10.9064 8.25772 11.8845 9.42082C13.2433 11.2998 10.2745 14.4996 10.2745 14.4996C10.2745 14.4996 9.87886 13.697 8.03381 13.2205C7.69648 13.123 6.89844 12.9039 6.89844 12.9039C6.89844 12.9039 7.79762 12.1954 7.96879 10.9202Z" fill="#840D06"/>
<path d="M9.93847 7.66832C8.86701 7.20365 8.14844 7.22561 8.14844 7.22561C8.14844 7.22561 8.31905 4.02695 9.70895 3.43216C11.8863 2.68699 14.002 6.51987 14.002 6.51987C14.002 6.51987 13.1279 6.65955 12.122 8.29916C11.9291 8.59486 11.4829 9.3006 11.4829 9.3006C11.4829 9.3006 11.0861 8.21805 9.93903 7.66832H9.93847Z" fill="#840D06"/>
</svg>
