<svg width="28" height="28" viewBox="0 0 28 28" fill="none" xmlns="http://www.w3.org/2000/svg">
<path d="M8.5839 12.6462H6.41724C3.79557 12.6462 2.35474 11.2053 2.35474 8.58366V6.41699C2.35474 3.79533 3.79557 2.35449 6.41724 2.35449H8.5839C11.2056 2.35449 12.6464 3.79533 12.6464 6.41699V8.58366C12.6464 11.2053 11.2056 12.6462 8.5839 12.6462ZM6.41724 3.97949C4.70557 3.97949 3.97974 4.70533 3.97974 6.41699V8.58366C3.97974 10.2953 4.70557 11.0212 6.41724 11.0212H8.5839C10.2956 11.0212 11.0214 10.2953 11.0214 8.58366V6.41699C11.0214 4.70533 10.2956 3.97949 8.5839 3.97949H6.41724Z" fill="#292D32"/>
<path d="M21.5839 12.6462H19.4172C16.7956 12.6462 15.3547 11.2053 15.3547 8.58366V6.41699C15.3547 3.79533 16.7956 2.35449 19.4172 2.35449H21.5839C24.2056 2.35449 25.6464 3.79533 25.6464 6.41699V8.58366C25.6464 11.2053 24.2056 12.6462 21.5839 12.6462ZM19.4172 3.97949C17.7056 3.97949 16.9797 4.70533 16.9797 6.41699V8.58366C16.9797 10.2953 17.7056 11.0212 19.4172 11.0212H21.5839C23.2956 11.0212 24.0214 10.2953 24.0214 8.58366V6.41699C24.0214 4.70533 23.2956 3.97949 21.5839 3.97949H19.4172Z" fill="#292D32"/>
<path d="M21.5839 25.6462H19.4172C16.7956 25.6462 15.3547 24.2053 15.3547 21.5837V19.417C15.3547 16.7953 16.7956 15.3545 19.4172 15.3545H21.5839C24.2056 15.3545 25.6464 16.7953 25.6464 19.417V21.5837C25.6464 24.2053 24.2056 25.6462 21.5839 25.6462ZM19.4172 16.9795C17.7056 16.9795 16.9797 17.7053 16.9797 19.417V21.5837C16.9797 23.2953 17.7056 24.0212 19.4172 24.0212H21.5839C23.2956 24.0212 24.0214 23.2953 24.0214 21.5837V19.417C24.0214 17.7053 23.2956 16.9795 21.5839 16.9795H19.4172Z" fill="#292D32"/>
<path d="M8.5839 25.6462H6.41724C3.79557 25.6462 2.35474 24.2053 2.35474 21.5837V19.417C2.35474 16.7953 3.79557 15.3545 6.41724 15.3545H8.5839C11.2056 15.3545 12.6464 16.7953 12.6464 19.417V21.5837C12.6464 24.2053 11.2056 25.6462 8.5839 25.6462ZM6.41724 16.9795C4.70557 16.9795 3.97974 17.7053 3.97974 19.417V21.5837C3.97974 23.2953 4.70557 24.0212 6.41724 24.0212H8.5839C10.2956 24.0212 11.0214 23.2953 11.0214 21.5837V19.417C11.0214 17.7053 10.2956 16.9795 8.5839 16.9795H6.41724Z" fill="#292D32"/>
</svg>
